<?xml version="1.0" encoding="UTF-8" standalone="no"?>
<svg
   version="1.0"
   width="1024.000000pt"
   height="1024.000000pt"
   viewBox="0 0 1024.000000 1024.000000"
   preserveAspectRatio="xMidYMid meet"
   id="svg7"
   sodipodi:docname="cartEmpty.svg"
   inkscape:version="1.3 (0e150ed6c4, 2023-07-21)"
   xmlns:inkscape="http://www.inkscape.org/namespaces/inkscape"
   xmlns:sodipodi="http://sodipodi.sourceforge.net/DTD/sodipodi-0.dtd"
   xmlns="http://www.w3.org/2000/svg"
   xmlns:svg="http://www.w3.org/2000/svg">
  <defs
     id="defs7" />
  <sodipodi:namedview
     id="namedview7"
     pagecolor="#ffffff"
     bordercolor="#000000"
     borderopacity="0.25"
     inkscape:showpageshadow="2"
     inkscape:pageopacity="0.0"
     inkscape:pagecheckerboard="0"
     inkscape:deskcolor="#d1d1d1"
     inkscape:document-units="pt"
     showgrid="false"
     inkscape:zoom="0.24134162"
     inkscape:cx="360.48486"
     inkscape:cy="283.83003"
     inkscape:window-width="1360"
     inkscape:window-height="745"
     inkscape:window-x="-8"
     inkscape:window-y="-8"
     inkscape:window-maximized="1"
     inkscape:current-layer="svg7" />
  <g
     transform="translate(0.000000,1024.000000) scale(0.100000,-0.100000)"
     fill="#000000"
     stroke="none"
     id="g7">
    <path
       d="M4595 8803 c-532 -31 -997 -164 -1500 -431 -341 -182 -741 -486 -962 -732 -47 -52 -100 -111 -117 -130 -200 -223 -405 -564 -517 -861 -103 -274 -148 -538 -136 -804 12 -267 64 -445 189 -654 70 -116 241 -287 354 -353 191 -112 378 -160 639 -164 224 -3 397 17 635 76 41 10 87 21 103 24 l27 6 0 -168 0 -168 -95 -27 c-346 -97 -599 -365 -645 -686 -18 -118 -8 -307 20 -396 50 -160 177 -352 302 -456 78 -65 227 -162 285 -186 50 -21 50 -22 23 -135 -44 -187 -44 -409 1 -555 26 -83 87 -203 140 -274 l40 -54 -168 -12 c-199 -15 -468 -50 -494 -64 -44 -23 -62 -105 -34 -159 22 -43 61 -51 190 -40 61 6 271 14 468 19 l359 9 86 -29 c111 -39 215 -63 382 -90 119 -19 184 -22 545 -25 314 -2 438 0 530 11 176 22 315 51 448 95 l118 39 332 -9 c183 -5 393 -14 467 -20 152 -12 178 -9 210 25 47 50 35 131 -24 171 -30 19 -357 60 -563 70 l-141 7 48 71 c62 92 82 133 113 231 65 206 59 401 -23 770 -31 137 -74 381 -85 477 l-6 57 466 0 466 1 72 -40 c121 -66 159 -72 470 -68 l272 3 65 31 c129 61 190 144 198 269 4 70 5 72 39 90 19 11 54 41 78 67 49 54 68 113 64 196 l-3 55 225 1 c203 1 229 3 276 23 153 62 230 181 221 342 -10 169 -115 290 -281 321 -84 17 -1420 12 -1515 -4 -95 -17 -167 -50 -255 -116 l-66 -50 -422 0 -421 0 6 163 c4 89 9 184 12 210 6 44 8 48 28 42 299 -88 534 -127 771 -128 200 -2 300 13 460 65 321 106 577 356 700 683 67 176 104 440 90 630 -30 393 -179 805 -430 1180 -233 350 -578 688 -958 939 -651 430 -1460 661 -2172 619z m510 -268 c532 -62 1077 -268 1540 -583 261 -178 570 -460 745 -682 351 -443 547 -983 510 -1411 -15 -179 -43 -285 -112 -424 -51 -102 -89 -154 -175 -236 -138 -134 -310 -216 -496 -237 -107 -12 -366 -6 -486 12 -127 19 -306 62 -425 103 l-78 27 6 51 c3 27 6 62 6 78 0 35 9 35 141 -8 258 -83 604 -130 793 -106 374 47 552 241 491 536 -43 205 -188 371 -485 557 -411 256 -981 414 -1800 500 -167 17 -793 17 -960 0 -452 -47 -696 -92 -1055 -194 -580 -165 -1048 -436 -1230 -713 -76 -115 -98 -180 -98 -290 0 -125 23 -183 106 -262 74 -71 165 -113 302 -138 109 -21 367 -16 510 10 72 12 293 67 411 101 21 5 22 2 26 -73 3 -49 1 -82 -6 -90 -15 -16 -255 -78 -391 -100 -156 -25 -486 -25 -605 0 -325 70 -577 333 -650 680 -50 235 -32 521 49 772 128 399 348 751 671 1075 225 226 304 294 489 425 501 355 1026 558 1611 624 130 15 504 12 645 -4z m-253 -2000 c2 -41 7 -77 11 -81 4 -4 67 -11 140 -16 273 -17 551 -63 795 -133 161 -46 183 -57 177 -93 -8 -47 -32 -303 -85 -907 -36 -413 -50 -722 -50 -1092 0 -581 45 -1056 141 -1485 91 -409 90 -568 -8 -768 -50 -103 -176 -228 -288 -286 -142 -74 -310 -118 -505 -132 -163 -12 -816 -8 -915 6 -265 37 -466 106 -585 199 -200 158 -287 366 -260 626 9 89 32 202 42 213 2 2 33 -6 68 -17 36 -12 143 -40 238 -65 143 -36 180 -49 208 -73 45 -40 108 -75 174 -97 48 -17 88 -19 325 -19 l270 0 63 29 c136 63 201 197 162 338 -9 31 -8 42 6 63 9 14 20 40 23 58 l7 32 199 6 c110 3 215 11 233 17 191 64 280 297 183 480 -43 79 -102 133 -175 161 -54 20 -74 21 -396 21 l-339 0 -47 50 c-94 99 -245 146 -391 121 -43 -7 -117 -26 -164 -42 -114 -38 -206 -39 -316 -4 -77 24 -178 79 -171 93 90 175 107 271 72 405 -19 74 -35 107 -85 174 l-39 52 0 119 c0 208 -25 815 -61 1515 -6 120 -9 220 -6 224 3 3 64 25 135 48 212 71 486 124 787 151 99 8 195 18 213 20 l32 5 0 79 0 79 68 3 c112 5 109 7 114 -77z m1979 -316 c38 -23 69 -46 69 -51 0 -19 -132 -137 -199 -177 -36 -22 -96 -51 -133 -65 -81 -31 -249 -66 -313 -66 l-47 0 4 60 c2 33 7 62 10 65 3 3 57 19 119 36 154 40 244 86 332 170 40 38 76 68 80 69 5 0 40 -19 78 -41z m-3961 -48 c73 -75 164 -126 295 -166 l70 -22 3 -71 3 -71 -38 5 c-220 31 -442 142 -535 268 l-29 40 78 42 c43 23 80 42 82 43 3 0 35 -30 71 -68z m4525 -405 c38 -71 39 -75 22 -93 -29 -32 -186 -101 -290 -128 -127 -32 -313 -45 -503 -34 -170 10 -356 34 -411 53 -37 13 -38 14 -35 57 6 76 9 82 50 75 21 -3 113 -11 206 -18 351 -25 685 36 864 157 23 16 40 21 47 15 6 -5 29 -43 50 -84z m-5052 -21 c167 -62 400 -92 647 -81 85 4 180 11 210 15 30 5 56 8 57 7 0 0 4 -31 8 -67 l7 -67 -88 -15 c-184 -33 -274 -41 -464 -41 -212 1 -325 15 -458 60 -80 26 -167 68 -177 84 -8 12 6 39 62 118 l44 62 42 -24 c23 -14 73 -37 110 -51z m6414 -1423 c28 -15 53 -62 53 -97 0 -37 -26 -82 -52 -91 -13 -4 -207 -8 -433 -9 -225 -1 -420 -3 -433 -4 -35 -2 -72 -44 -72 -84 0 -51 32 -75 116 -86 38 -5 82 -15 97 -22 68 -31 76 -139 14 -179 -14 -9 -64 -16 -139 -20 -100 -4 -121 -8 -137 -25 -55 -56 -26 -116 64 -135 90 -19 107 -75 39 -129 -42 -33 -99 -43 -214 -39 -125 5 -188 27 -220 80 -33 54 -27 74 23 81 136 19 256 110 292 222 40 124 17 384 -44 504 -12 22 -21 43 -21 46 0 3 235 5 523 3 401 -2 527 -6 544 -16z m-1330 -18 c72 -54 103 -141 110 -311 l5 -122 -30 -31 c-42 -41 -98 -42 -144 -1 -27 24 -32 36 -36 87 -3 47 -1 63 12 73 24 20 20 67 -6 85 -31 22 -48 20 -95 -10 -118 -77 -143 -244 -56 -374 33 -48 38 -63 38 -115 1 -39 9 -77 23 -108 l21 -48 -21 7 c-55 17 -122 70 -154 121 -28 42 -40 53 -61 53 -36 0 -63 -27 -63 -62 l0 -28 -127 -1 c-424 -2 -717 1 -723 8 -8 10 -28 262 -36 476 l-7 157 406 0 407 0 -8 -32 c-4 -18 -7 -73 -7 -123 0 -72 4 -97 20 -124 27 -47 47 -58 82 -45 25 9 28 14 26 54 -5 138 -2 171 17 224 28 74 96 147 173 186 56 28 70 31 134 28 53 -2 79 -9 100 -24z m-3888 -135 c29 -51 40 -178 22 -245 -14 -54 -52 -108 -77 -112 -11 -2 -53 8 -93 22 -54 18 -79 22 -92 15 -93 -49 91 -281 308 -388 184 -91 362 -110 538 -56 153 47 200 55 252 42 47 -12 47 -12 48 -55 1 -32 8 -49 28 -70 l27 -27 423 -5 c462 -5 458 -5 485 -66 22 -48 15 -90 -20 -119 l-33 -28 -349 5 c-209 3 -361 2 -377 -4 -17 -6 -32 -21 -38 -38 -14 -43 10 -66 94 -89 78 -22 97 -41 93 -90 -4 -49 -38 -69 -143 -86 -96 -16 -125 -34 -125 -80 0 -51 103 -97 180 -80 22 5 31 2 39 -13 8 -15 6 -23 -9 -37 -17 -15 -42 -17 -257 -13 -231 3 -240 4 -293 29 -127 59 -178 135 -205 302 -7 43 -42 72 -75 62 -36 -12 -53 -61 -47 -137 7 -81 13 -79 -127 -43 -282 73 -492 163 -611 261 -146 120 -248 269 -281 409 -81 349 117 659 483 759 189 51 190 51 232 -25z"
       id="path1" />
    <path
       d="M3025 7766 c-17 -7 -50 -35 -73 -61 -36 -40 -42 -54 -42 -91 0 -54 31 -80 83 -70 63 12 147 105 147 164 0 50 -62 82 -115 58z"
       id="path2" />
    <path
       d="M5751 7652 c-52 -26 -76 -65 -76 -122 0 -112 121 -183 223 -131 104 53 98 197 -12 250 -52 26 -90 26 -135 3z"
       id="path3" />
    <path
       d="M3790 7402 c-19 -9 -45 -32 -57 -51 -70 -104 38 -216 145 -151 37 23 72 75 72 108 0 39 -29 83 -65 98 -44 18 -53 18 -95 -4z"
       id="path4" />
    <path
       d="M4055 5860 c-114 -26 -182 -143 -146 -253 16 -46 79 -103 131 -117 117 -31 240 67 240 191 -1 111 -116 204 -225 179z"
       id="path5" />
    <path
       d="M5395 5861 c-75 -18 -119 -59 -143 -130 -15 -42 -15 -65 -1 -116 14 -51 76 -111 130 -125 87 -24 191 28 230 115 23 49 24 85 3 133 -37 91 -132 144 -219 123z"
       id="path6" />
    <path
       d="M5025 5561 c-11 -3 -49 -22 -85 -43 -127 -71 -233 -70 -366 3 -85 47 -121 49 -159 12 -24 -24 -27 -34 -23 -75 15 -148 249 -259 462 -219 120 22 234 93 267 165 24 54 24 76 -3 116 -24 35 -59 50 -93 41z"
       id="path7" />
  </g>
  <path
     style="opacity:0.619403;fill:#ff0000;stroke:#6a1c1c;stroke-width:14.6495"
     d="m 320.58483,702.87823 c -67.14874,-4.99879 -107.935,-60.97192 -102.93424,-141.26213 4.17091,-66.9667 38.65494,-132.48083 104.51224,-198.55655 68.90962,-69.13817 149.75903,-112.693 241.94919,-130.34178 37.2913,-7.13899 107.26264,-6.56001 146.70014,1.21388 118.30491,23.3202 232.33702,97.85756 293.37574,191.76571 48.4645,74.56273 60.8366,158.12029 31.8749,215.27343 -9.3368,18.42529 -35.9067,43.12324 -56.56754,52.58207 -29.7016,13.59784 -79.82298,12.79929 -135.24336,-2.15474 l -23.87994,-6.44349 v -10.24715 c 0,-8.55956 0.84443,-9.92135 5.12732,-8.26888 14.36267,5.54155 49.0441,13.43907 72.20226,16.4416 40.92077,5.30552 73.51933,-0.45493 94.9117,-16.77169 12.58166,-9.59647 18.21036,-22.81466 18.17356,-42.67821 -0.097,-52.33823 -67.88543,-103.65549 -173.27378,-131.17141 -73.70823,-19.24454 -97.67188,-21.9109 -197.3299,-21.95626 -82.0948,-0.0374 -94.40867,0.60583 -128.08271,6.69029 -125.24675,22.63045 -221.27453,70.60466 -248.71007,124.2523 -3.78338,7.39805 -5.55915,16.98838 -5.55915,30.02303 0,17.85267 0.71147,19.94017 10.48237,30.75537 6.72082,7.43916 16.44609,13.85781 27.10157,17.88701 14.8754,5.62491 20.61575,6.12264 54.7079,4.74353 25.10235,-1.01544 45.58082,-3.59771 60.06295,-7.57373 12.08584,-3.31811 23.04662,-6.05554 24.35731,-6.08314 1.31068,-0.0276 1.96991,4.22242 1.46495,9.44459 -0.87006,8.99787 -1.91479,9.77148 -19.96246,14.78199 -24.0223,6.66921 -64.7868,9.93784 -95.46095,7.65436 z M 519.6621,404.11353 c 8.72712,-6.86475 10.08257,-17.51539 3.11574,-24.48222 -6.96683,-6.96683 -17.61746,-5.61138 -24.48221,3.11574 -7.5911,9.65052 -7.6355,14.15628 -0.21265,21.57913 7.42284,7.42285 11.92861,7.37845 21.57912,-0.21265 z m 265.58142,-23.22655 c 5.3543,0 11.68924,-9.64049 11.68924,-17.78868 0,-17.21851 -22.79433,-27.09487 -35.66057,-15.45107 -13.29269,12.02973 0.85527,39.7593 17.58833,34.47257 2.1461,-0.67805 5.01845,-1.23282 6.383,-1.23282 z M 411.97331,352.9969 c 10.1424,-10.14239 8.83874,-23.00288 -2.46378,-24.30485 -13.76509,-1.58563 -29.55996,20.98189 -20.80948,29.73236 4.32551,4.32552 16.31667,1.52909 23.27326,-5.42751 z"
     id="path8"
     transform="scale(0.75)" />
  <path
     style="opacity:0.619403;fill:#008000;stroke:#6a1c1c;stroke-width:1.83119"
     d="m 350.12303,632.10492 c -26.26656,-0.78682 -45.06204,-4.92649 -63.95727,-14.08647 -5.95931,-2.88894 -8.19151,-4.48684 -8.19151,-5.86383 0,-1.77977 2.81958,-6.41906 10.5659,-17.38495 1.92093,-2.71931 3.52893,-4.99864 3.57334,-5.06516 0.0444,-0.0665 1.78425,0.85982 3.86632,2.05856 4.83029,2.78102 6.53482,3.63455 11.45352,5.73527 19.85217,8.47861 46.92591,13.00518 77.8485,13.01579 13.53441,0.005 33.3805,-1.14975 43.58226,-2.53506 2.71932,-0.36925 5.02661,-0.59485 5.12733,-0.50131 0.10071,0.0935 0.60864,3.98836 1.12873,8.65517 0.85361,7.6596 0.88924,8.51146 0.36623,8.75605 -0.87057,0.40715 -26.09549,4.55165 -32.80827,5.39046 -8.54953,1.06834 -13.83266,1.45426 -25.29378,1.84765 -11.14624,0.38259 -13.8216,0.38041 -27.2613,-0.0222 z"
     id="path11"
     transform="scale(0.75)" />
  <path
     style="opacity:0.619403;fill:#008000;stroke:#6a1c1c;stroke-width:1.83119"
     d="m 425.38484,585.40342 c -18.23678,-2.91217 -37.54636,-10.16032 -51.34173,-19.27192 -6.08928,-4.02187 -9.38856,-6.71168 -13.67536,-11.14915 -3.12476,-3.23459 -8.3338,-9.87031 -7.99581,-10.18575 0.4402,-0.41085 19.69546,-10.51047 20.37983,-10.68948 0.70996,-0.1857 1.88207,0.8066 7.69099,6.51111 3.76936,3.70161 8.14599,7.69718 9.72585,8.87905 9.06942,6.78467 17.97268,11.02784 33.10857,15.77908 4.12719,1.29555 7.58583,2.43739 7.68586,2.53742 0.20541,0.20541 0.78245,11.36166 0.81175,15.69409 0.0139,2.05339 -0.1074,2.82928 -0.43859,2.80557 -0.25179,-0.018 -2.9299,-0.42754 -5.95136,-0.91002 z"
     id="path12"
     transform="scale(0.75)" />
  <path
     style="opacity:0.619403;fill:#008000;stroke:#6a1c1c;stroke-width:1.29484"
     d="m 886.19194,630.58368 c -21.94835,-1.20035 -47.558,-4.32329 -56.35258,-6.87186 -3.19727,-0.92653 -4.67309,-1.61482 -5.45503,-2.5441 l -0.67898,-0.80692 0.16329,-3.62584 c 0.20173,-4.47975 0.79618,-8.49801 1.41354,-9.55507 0.92622,-1.58592 1.19145,-1.62178 7.21296,-0.97522 5.589,0.60012 16.57358,1.54043 26.24609,2.24673 7.89811,0.57673 23.84285,0.78292 31.7237,0.41023 25.43041,-1.20262 47.01395,-5.27958 64.8048,-12.24111 4.91095,-1.92165 12.27417,-5.58407 15.86405,-7.89069 5.75569,-3.69823 7.4345,-4.20693 8.64068,-2.61822 1.92285,2.53267 9.11361,15.86348 9.99997,18.53875 0.612,1.84718 0.53977,2.32316 -0.56583,3.72838 -2.89968,3.6855 -21.16858,12.20041 -35.07377,16.34745 -8.93504,2.66476 -19.30463,4.38033 -33.24104,5.49949 -5.88413,0.47252 -28.36677,0.70447 -34.70185,0.358 z"
     id="path13"
     transform="scale(0.75)" />
  <path
     style="opacity:0.619403;fill:#008000;stroke:#6a1c1c;stroke-width:1.29484"
     d="m 827.92436,583.30347 c 2.4e-4,-0.41398 0.17853,-3.11763 0.39621,-6.00811 0.43977,-5.83975 0.95716,-9.29169 1.46718,-9.78877 0.42806,-0.41719 5.99077,-2.13768 14.45121,-4.46961 15.52922,-4.28027 23.45457,-7.33221 31.27242,-12.04256 5.28172,-3.1823 8.57881,-5.74575 15.21252,-11.82755 4.93335,-4.52291 8.65224,-7.7322 9.34668,-8.0659 0.43923,-0.21107 1.02719,-0.0161 3.10763,1.03058 5.88682,2.96165 13.07005,7.44175 15.49099,9.66155 l 1.3036,1.1953 -0.73708,1.13543 c -0.94927,1.46229 -7.4962,7.9809 -11.12837,11.08024 -9.01541,7.69287 -13.82022,11.0063 -21.81812,15.04596 -8.18701,4.13518 -14.07551,6.30335 -23.79295,8.76066 -12.20598,3.08661 -21.4762,4.61022 -29.71669,4.8841 l -4.85567,0.16137 z"
     id="path14"
     transform="scale(0.75)" />
  <path
     style="opacity:0.619403;fill:#ffb380;stroke:#6a1c1c;stroke-width:10.3588"
     d="m 576.98295,1158.0685 c -83.49373,-6.6648 -127.38111,-47.9873 -119.25622,-112.2867 2.79922,-22.1527 3.80861,-25.0368 8.16689,-23.3345 1.84702,0.7215 15.47797,4.5338 30.291,8.4719 17.89857,4.7583 29.71253,9.1411 35.21978,13.0658 15.23147,10.8547 20.53802,12.0077 62.31793,13.541 l 39.19792,1.4384 11.39464,-6.8827 c 15.42923,-9.3198 21.42853,-20.5974 20.0123,-37.6196 -0.64158,-7.7113 0.0214,-14.54993 1.83035,-18.87929 l 2.83633,-6.78828 28.53354,-1.51213 c 31.55904,-1.67244 35.60751,-2.99733 46.70949,-15.28588 9.95179,-11.01545 13.57781,-26.3692 9.87385,-41.80906 -3.32264,-13.85026 -17.61029,-29.50181 -30.03341,-32.90039 -4.77215,-1.30552 -26.79525,-2.27197 -51.92413,-2.27862 l -43.63712,-0.0116 -6.08493,-6.47729 c -15.80771,-16.827 -39.31523,-20.3143 -74.79549,-11.09575 -17.03983,4.42732 -21.72712,4.91103 -30.99208,3.19831 -8.79851,-1.62649 -31.88334,-11.13103 -31.84401,-13.11089 0.005,-0.26567 2.31386,-6.07676 5.1302,-12.91355 8.95075,-21.72832 5.86408,-47.9027 -7.77146,-65.90052 -4.90292,-6.47147 -5.03772,-7.74604 -6.39629,-60.47635 -0.7633,-29.62606 -2.75322,-80.43578 -4.42204,-112.91049 -1.66882,-32.47471 -3.05443,-63.79151 -3.07912,-69.59289 l -0.0449,-10.54796 21.55775,-6.61924 c 29.04345,-8.91771 57.65801,-14.29842 98.60386,-18.54156 l 34.18391,-3.54241 0.62621,-10.83816 0.62621,-10.83816 h 10.02883 c 11.05337,0 12.5439,1.60913 12.5439,13.54196 0,8.13875 -3.14557,7.27406 44.54267,12.24446 29.43344,3.06775 60.35555,8.99593 86.17208,16.52033 20.3224,5.92309 19.22963,-0.71396 12.30694,74.74724 -11.152,121.56281 -13.88134,187.40089 -10.56391,254.82551 2.77723,56.44544 6.48206,87.74941 16.67309,140.87914 4.37131,22.78932 8.57268,47.11472 9.33639,54.05642 5.13964,46.717 -27.06054,88.1329 -78.7048,101.23 -6.83679,1.7339 -21.28726,4.0799 -32.11216,5.2134 -21.94539,2.298 -88.37428,2.3094 -117.05399,0.02 z m 84.97521,-494.90763 c 19.67443,-8.70001 28.34283,-22.98623 20.86867,-34.39326 -4.50067,-6.86889 -12.79217,-6.74821 -26.66824,0.38813 -14.50297,7.45875 -27.54485,7.47072 -43.68828,0.0401 -14.07683,-6.47941 -19.1845,-6.93272 -24.44753,-2.16974 -4.90717,4.44093 -4.80518,12.4887 0.26364,20.8018 11.75959,19.28627 47.77882,26.7828 73.67174,15.33298 z M 558.95403,630.48946 c 6.67167,-4.1677 12.83262,-15.03028 12.84179,-22.64179 0.0114,-9.49123 -7.97013,-19.9901 -17.8023,-23.41696 -10.75508,-3.74851 -18.28256,-1.80991 -27.06192,6.96945 -6.01067,6.01067 -6.92183,8.29176 -6.92183,17.32881 0,8.16728 1.15163,11.77562 5.35115,16.76647 8.5467,10.15718 22.10203,12.17234 33.59311,4.99402 z m 182.57144,-2.31565 c 6.61393,-4.938 11.46317,-17.11263 9.66684,-24.26979 -2.38278,-9.49375 -13.70638,-19.79409 -23.15347,-21.06121 -26.58215,-3.56542 -41.1903,32.92418 -19.00123,47.46301 9.498,6.22334 22.43382,5.37443 32.48786,-2.13201 z"
     id="path18"
     transform="scale(0.75)" />
  <path
     style="opacity:0.619403;fill:#ffb380;stroke:#6a1c1c;stroke-width:10.3588"
     d="m 556.24766,1019.609 c -4.56763,-2.09 -11.28749,-7.1972 -14.93303,-11.3492 -6.02162,-6.8582 -7.89399,-11.42705 -11.80577,-28.80746 -0.87004,-3.86564 -3.01317,-6.10197 -6.74536,-7.03869 -7.4102,-1.85985 -11.04074,3.46988 -11.04074,16.20806 0,7.29628 -0.79954,9.96278 -2.9873,9.96278 -7.08578,0 -53.39213,-15.45509 -69.52402,-23.20416 -23.26002,-11.17312 -46.47911,-33.69616 -56.42864,-54.73707 -6.05424,-12.80329 -6.74022,-16.15768 -6.74948,-33.00495 -0.01,-17.52451 0.50174,-19.7893 7.80504,-34.56652 9.10372,-18.42012 20.81722,-29.84413 39.69151,-38.71055 14.17138,-6.65717 37.25323,-12.93039 41.53329,-11.28798 8.95542,3.43652 12.36556,34.15188 5.11251,46.04873 -3.61847,5.93521 -5.05999,6.76087 -9.83308,5.63211 -13.20421,-3.1226 -22.70951,-3.66666 -24.12231,-1.38071 -3.60582,5.83434 1.87468,16.11264 16.21638,30.41277 30.24532,30.15763 62.70186,38.16087 107.9329,26.61444 23.64728,-6.03659 32.15153,-5.02336 32.15153,3.83068 0,2.65908 1.31268,6.6299 2.91709,8.82405 2.72599,3.728 6.74121,4.05934 61.28566,5.05742 54.71221,1.00114 58.55264,1.31997 61.30722,5.08959 4.04903,5.54108 3.67976,12.99434 -0.83533,16.86029 -3.20326,2.74272 -11.14572,3.19955 -52.52084,3.02088 -52.51173,-0.22675 -54.65164,0.19971 -53.14912,10.59201 0.51166,3.53902 3.45935,5.73962 12.0716,9.01207 7.90699,3.00447 11.55679,5.56943 11.92444,8.3801 0.89372,6.83254 -2.57808,9.53976 -16.29911,12.70962 -15.30455,3.5357 -18.4146,5.59523 -18.4146,12.19449 0,6.8736 7.50885,11.2585 19.27939,11.2585 7.13435,0 9.81942,0.755 9.20948,2.5897 -0.62926,1.8928 -9.45623,2.7241 -32.80274,3.0893 -27.2847,0.4269 -33.15263,-0.054 -40.24657,-3.3003 z"
     id="path19"
     transform="scale(0.75)" />
  <path
     style="opacity:0.619403;fill:#ffb380;stroke:#6a1c1c;stroke-width:10.3588"
     d="m 958.67448,901.53303 c -3.05671,-2.00518 -8.64647,-7.21901 -12.42168,-11.58628 -5.48492,-6.34511 -7.78449,-7.64837 -11.44526,-6.48648 -2.51968,0.79971 -5.15062,3.72261 -5.84652,6.49532 l -1.26529,5.0413 h -55.42747 -55.42747 l -1.29772,-11.04159 c -0.71374,-6.07287 -1.91918,-24.71864 -2.67875,-41.43504 l -1.38103,-30.39345 52.6335,-0.005 52.6335,-0.005 -0.66121,16.11736 c -0.57538,14.02526 -0.0737,16.8642 3.86464,21.87103 2.92631,3.7202 6.08879,5.53076 8.94821,5.12297 4.02298,-0.57375 4.51879,-2.23369 5.48997,-18.38012 0.74131,-12.32473 2.24977,-19.60632 4.93563,-23.82515 10.93633,-17.17828 23.62484,-24.65056 39.3008,-23.1443 16.81892,1.61609 22.28427,10.80128 25.28867,42.50075 1.2186,12.85764 0.8845,15.67468 -2.273,19.1637 -4.63255,5.11887 -13.76805,5.28343 -18.25195,0.32878 -4.3822,-4.84228 -6.67037,-16.00364 -3.66204,-17.86289 3.03644,-1.87663 2.90867,-10.06673 -0.20564,-13.18103 -3.63836,-3.63837 -9.55692,-3.04417 -16.10236,1.6166 -12.57682,8.95548 -16.25208,30.16857 -8.00778,46.21981 4.04578,7.87694 11.01298,34.31915 9.45357,35.87856 -0.34961,0.34961 -3.13661,-1.00494 -6.19332,-3.01011 z"
     id="path20"
     transform="scale(0.75)" />
  <path
     style="opacity:0.619403;fill:#ffb380;stroke:#6a1c1c;stroke-width:10.3588"
     d="m 1009.9791,909.47207 c -10.3135,-1.8252 -20.80981,-10.05472 -19.15523,-15.01846 0.39585,-1.18757 5.06133,-3.26158 10.36773,-4.60893 13.0475,-3.3129 24.6273,-11.73623 30.6934,-22.32698 4.5442,-7.93367 5.0017,-10.96491 4.7642,-31.56574 -0.2378,-20.63289 -2.0207,-30.67863 -7.9969,-45.06061 -1.4046,-3.38009 1.2087,-3.62505 38.5963,-3.61799 60.298,0.0114 98.93,2.14229 102.438,5.65036 3.9027,3.90272 3.718,13.97064 -0.3305,18.01923 -2.803,2.80297 -11.2362,3.25561 -60.6558,3.25561 -63.6412,0 -66.609,0.55696 -66.609,12.50023 0,7.30602 5.5325,11.35186 18.3469,13.4167 10.3562,1.66874 16.8729,7.13809 16.8729,14.16114 0,7.9713 -5.8945,11.19575 -23.4125,12.80729 -17.4342,1.60382 -22.1661,4.30146 -22.1661,12.63682 0,4.25268 2.0021,6.0308 11.5393,10.24861 12.7325,5.63093 13.8671,9.15637 5.0347,15.64387 -6.257,4.59588 -24.0436,6.38666 -38.3274,3.85885 z"
     id="path21"
     transform="scale(0.75)" />
</svg>
