<?xml version="1.0" encoding="UTF-8" standalone="no"?>
<!-- Created with Inkscape (http://www.inkscape.org/) -->

<svg
   width="820"
   height="300"
   viewBox="0 0 820 300"
   version="1.1"
   id="svg1"
   inkscape:version="1.3 (0e150ed6c4, 2023-07-21)"
   sodipodi:docname="logo_letras.svg"
   xmlns:inkscape="http://www.inkscape.org/namespaces/inkscape"
   xmlns:sodipodi="http://sodipodi.sourceforge.net/DTD/sodipodi-0.dtd"
   xmlns="http://www.w3.org/2000/svg"
   xmlns:svg="http://www.w3.org/2000/svg">
  <sodipodi:namedview
     id="namedview1"
     pagecolor="#ffffff"
     bordercolor="#000000"
     borderopacity="0.25"
     inkscape:showpageshadow="2"
     inkscape:pageopacity="0.0"
     inkscape:pagecheckerboard="0"
     inkscape:deskcolor="#d1d1d1"
     inkscape:document-units="px"
     showgrid="false"
     inkscape:zoom="0.73211422"
     inkscape:cx="430.26073"
     inkscape:cy="280.69391"
     inkscape:window-width="1360"
     inkscape:window-height="745"
     inkscape:window-x="-8"
     inkscape:window-y="-8"
     inkscape:window-maximized="1"
     inkscape:current-layer="layer1">
    <inkscape:grid
       id="grid4"
       units="px"
       originx="0"
       originy="0"
       spacingx="1"
       spacingy="1"
       empcolor="#0099e5"
       empopacity="0.30196078"
       color="#0099e5"
       opacity="0.14901961"
       empspacing="5"
       dotted="false"
       gridanglex="30"
       gridanglez="30"
       visible="false" />
  </sodipodi:namedview>
  <defs
     id="defs1" />
  <g
     inkscape:label="Capa 1"
     inkscape:groupmode="layer"
     id="layer1">
    <g
       id="g1"
       transform="matrix(1.0088833,0,0,0.99713383,-5.0888338,-71.436358)">
      <path
         d="m 406.3903,164.02958 q 0,3.21308 1.26229,5.16389 1.37703,1.9508 3.78685,1.9508 1.83604,0 3.78684,-1.14753 1.95081,-1.26229 3.09834,-2.98358 l 1.49178,1.49179 q -1.37703,3.44259 -4.81962,5.96715 -3.32784,2.40982 -7.8032,2.40982 -5.04914,0 -8.26222,-3.55735 -3.21308,-3.67209 -3.21308,-10.44252 v -8.03271 q -2.52457,9.40975 -8.49173,15.95067 -5.96715,6.54092 -15.3769,6.54092 -6.88518,0 -10.44252,-4.59012 -3.55734,-4.70487 -3.55734,-11.81956 V 98.276112 l 10.67202,-3.786849 v 61.851867 q 0,4.59012 0.34426,7.45894 0.34426,2.75408 2.06556,5.04914 1.83605,2.29506 5.73765,2.29506 6.54092,0 10.78678,-6.54092 4.24586,-6.65568 6.19666,-15.37691 2.06556,-8.83598 2.06556,-15.14739 V 98.390865 l 10.67202,-3.901602 z m 35.57343,-71.605871 v 22.262081 q 2.52457,-9.63925 8.37697,-15.835913 5.96716,-6.311415 15.72116,-6.311415 6.88518,0 10.44253,4.704873 3.55734,4.704875 3.55734,11.704805 v 55.08144 q 0,3.21308 1.26228,5.16389 1.37704,1.9508 3.78685,1.9508 1.9508,0 3.9016,-1.14753 1.9508,-1.26229 2.98358,-2.98358 l 1.60654,1.49179 q -1.49179,3.44259 -4.81962,5.96715 -3.32784,2.40982 -7.68845,2.40982 -5.27864,0 -8.49173,-3.55735 -3.21308,-3.67209 -3.21308,-10.55727 v -49.22904 q 0,-6.42617 -1.49179,-10.67203 -1.37703,-4.245859 -6.54092,-4.245859 -6.54092,0 -10.90153,6.540919 -4.36062,6.42617 -6.42617,15.1474 -2.06556,8.72123 -2.06556,15.03264 v 38.21275 l -10.55727,4.24586 V 96.440064 Z m 95.01561,2.065554 q 13.77036,0 20.9998,7.803207 7.22944,7.68845 7.22944,20.88504 0,14.57363 -9.18024,26.8522 -9.06549,12.16382 -23.52437,19.50801 -14.34412,7.3442 -29.37676,8.26222 v -63.57316 l 10.67202,-3.9016 v 61.2781 q 11.36055,-2.98358 20.19653,-9.63925 8.83598,-6.77043 13.77036,-16.29493 5.04913,-9.5245 5.04913,-20.54079 0,-6.31141 -2.1803,-11.7048 -2.18031,-5.39339 -6.88518,-8.83598 -4.59012,-3.44259 -11.70481,-3.44259 -9.06549,0 -18.01622,3.55734 -8.83598,3.55734 -15.95067,9.5245 l -2.29506,-2.40981 q 7.3442,-7.22944 19.27851,-12.278575 11.93431,-5.049132 21.91782,-5.049132 z m 75.04838,-1.14753 q 10.90153,0 19.16375,6.081909 8.37697,6.081908 12.85233,15.950668 4.59012,9.86876 4.59012,20.65554 0,10.67203 -4.1311,20.42603 -4.01636,9.63925 -12.27857,15.72116 -8.26222,6.08191 -20.19653,6.08191 -11.01629,0 -19.50801,-6.08191 -8.49172,-6.08191 -13.08184,-15.83591 -4.47537,-9.75401 -4.47537,-20.31128 0,-10.90154 4.01635,-20.65554 4.13111,-9.75401 12.50808,-15.835915 8.37697,-6.196662 20.54079,-6.196662 z m -5.27864,6.311415 q -7.34419,0 -12.16382,4.360612 -4.81962,4.24586 -6.99993,10.78678 -2.18031,6.42617 -2.18031,12.85234 0,9.98351 3.21309,20.08177 3.32783,9.98352 10.32777,16.8687 7.11468,6.77042 17.78671,6.77042 7.34419,0 12.04907,-4.36061 4.81962,-4.36062 6.99993,-10.78678 2.18031,-6.42617 2.18031,-12.96709 0,-9.75401 -3.21309,-19.85227 -3.21308,-10.09826 -10.32777,-16.86869 -6.99993,-6.885182 -17.67196,-6.885182 z"
         id="text1"
         style="font-size:114.753px;line-height:0;font-family:Amita;-inkscape-font-specification:'Amita, Normal';fill:#6a1c1c;stroke-width:1.19534"
         transform="scale(0.97018098,1.0307355)"
         aria-label="UNDO" />
      <path
         style="font-size:114.753px;line-height:0;font-family:Amita;-inkscape-font-specification:'Amita, Normal';fill:#6a1c1c;stroke-width:1.19534"
         d="m 161.8754,247.84844 q 13.77036,0 20.9998,7.8032 7.22943,7.68845 7.22943,20.88505 0,14.57363 -9.18024,26.8522 -9.06548,12.16382 -23.52436,19.50801 -14.34412,7.34419 -29.37677,8.26222 v -63.57316 l 10.67203,-3.90161 v 61.2781 q 11.36055,-2.98357 20.19653,-9.63925 8.83598,-6.77042 13.77036,-16.29492 5.04913,-9.5245 5.04913,-20.54079 0,-6.31141 -2.18031,-11.70481 -2.1803,-5.39339 -6.88518,-8.83598 -4.59012,-3.44259 -11.7048,-3.44259 -9.06549,0 -18.01622,3.55735 -8.83598,3.55734 -15.95067,9.5245 l -2.29506,-2.40982 q 7.34419,-7.22944 19.2785,-12.27857 11.93432,-5.04913 21.91783,-5.04913 z m 92.26126,3.44259 q -12.73758,1.72129 -22.9506,8.83598 -10.21302,6.99993 -16.06542,17.78672 -5.73765,10.67202 -5.73765,23.1801 0,10.44252 4.01635,16.52443 4.01636,6.08191 10.55728,6.08191 6.42617,0 12.27857,-8.83598 5.96716,-8.95073 9.5245,-23.29486 3.6721,-14.45888 3.6721,-30.06528 l 10.78678,-4.24586 v 60.13057 q 0,3.21308 1.37703,5.16388 1.37704,1.9508 3.78685,1.9508 1.83605,0 3.78685,-1.14753 1.9508,-1.26228 2.98358,-2.98357 l 1.60654,1.49178 q -1.60654,3.55735 -4.93438,5.96716 -3.32783,2.40981 -7.57369,2.40981 -5.27864,0 -8.60648,-3.67209 -3.21308,-3.6721 -3.21308,-10.44253 v -21.91782 h -0.57377 q -8.26221,36.72096 -27.99973,36.72096 -10.21302,0 -16.40968,-7.11469 -6.19666,-7.22943 -6.19666,-19.73751 0,-14.34413 7.5737,-26.96696 7.57369,-12.62283 20.42603,-20.54078 12.85234,-7.91796 27.88498,-8.60648 z m 63.4583,-3.6721 q 10.90154,0 17.78672,5.96716 6.99993,5.8524 6.99993,17.67196 0,9.40975 -6.31141,17.55721 -6.31142,8.03271 -16.18018,12.85234 -9.754,4.81962 -19.62276,4.81962 -1.03278,0 -1.26228,-0.2295 l 0.57376,-3.09833 q 7.68845,-0.80328 15.03265,-4.81963 7.34419,-4.01636 11.93431,-10.44252 4.70487,-6.54092 4.70487,-14.45888 0,-8.60648 -5.27864,-13.77036 -5.16388,-5.16389 -15.3769,-5.16389 -7.91796,0 -16.75394,3.78685 -8.72122,3.6721 -15.26215,9.63925 l -2.1803,-2.40981 q 8.37697,-7.8032 19.50801,-12.85233 11.24579,-5.04914 21.68831,-5.04914 z m -23.29485,79.52383 -10.55728,4.01636 v -62.76989 l 10.55728,-4.13111 z m 111.08101,-81.01561 q -4.47537,5.8524 -11.13104,9.63925 -6.65567,3.67209 -13.77036,3.67209 -2.29506,2.86883 -3.32784,5.39339 -1.03277,2.52457 -1.03277,5.96716 v 37.40948 q 0,8.95073 -2.75407,14.11462 -2.75408,5.04913 -8.83599,9.754 l -2.40981,-2.29506 q 1.7213,-1.9508 2.52457,-5.04913 0.91802,-3.09833 0.91802,-6.19666 v -41.08158 q 0,-5.16388 2.75407,-9.86875 2.75408,-4.70488 6.99994,-8.14747 l -15.83592,-0.11475 q -4.36061,0 -7.45894,1.60654 -3.09833,1.49179 -6.08191,4.81963 l -2.18031,-1.7213 q 5.73765,-6.99993 12.04907,-10.78678 6.42616,-3.78685 13.08184,-3.78685 h 9.5245 q 8.26221,0 15.3769,-0.80327 7.11468,-0.91802 10.32777,-3.78685 z m 34.08163,0.57376 q 10.90153,0 19.16375,6.08191 8.37697,6.08191 12.85233,15.95067 4.59012,9.86875 4.59012,20.65554 0,10.67202 -4.13111,20.42603 -4.01635,9.63925 -12.27857,15.72116 -8.26221,6.08191 -20.19652,6.08191 -11.01629,0 -19.50801,-6.08191 -8.49173,-6.08191 -13.08185,-15.83591 -4.47536,-9.75401 -4.47536,-20.31128 0,-10.90154 4.01635,-20.65554 4.13111,-9.75401 12.50808,-15.83592 8.37697,-6.19666 20.54079,-6.19666 z m -5.27864,6.31141 q -7.34419,0 -12.16382,4.36062 -4.81963,4.24586 -6.99993,10.78678 -2.18031,6.42617 -2.18031,12.85234 0,9.98351 3.21308,20.08177 3.32784,9.98351 10.32777,16.86869 7.11469,6.77043 17.78672,6.77043 7.34419,0 12.04906,-4.36061 4.81963,-4.36062 6.99994,-10.78679 2.1803,-6.42616 2.1803,-12.96709 0,-9.754 -3.21308,-19.85226 -3.21308,-10.09827 -10.32777,-16.8687 -6.99993,-6.88518 -17.67196,-6.88518 z m 9.29499,-30.9833 -13.99986,16.06542 1.72129,2.29506 19.2785,-9.98352 z m 87.3271,24.32763 q 6.88518,0 11.2458,2.98358 4.36061,2.98358 4.36061,7.8032 0,4.70488 -3.78685,9.40975 -3.67209,4.70487 -9.63925,7.91796 -5.8524,3.21308 -12.04907,3.67209 l -1.14753,-2.18031 q 6.08191,-1.49178 10.32777,-5.8524 4.24587,-4.47537 4.24587,-9.18024 0,-3.78685 -2.63932,-5.96715 -2.63932,-2.29506 -6.99994,-2.29506 -7.8032,0 -13.99986,5.16388 -6.19666,5.04913 -9.75401,13.99987 -3.44259,8.95073 -3.44259,20.19652 0,13.77036 4.59012,21.57357 4.59012,7.8032 13.77036,7.8032 5.27864,0 10.09827,-3.78685 4.93438,-3.78685 8.03271,-9.754 3.09833,-6.08191 3.21308,-12.50808 l 10.90154,-3.78685 v 46.24546 l -10.09827,4.13111 v -35.11442 h -0.68852 q -1.72129,7.22944 -5.73765,12.62283 -3.9016,5.39339 -9.29499,8.26222 -5.27864,2.86882 -11.01629,2.86882 -7.8032,0 -13.6556,-3.67209 -5.85241,-3.78685 -9.06549,-10.67203 -3.09833,-6.88518 -3.09833,-16.06542 0,-15.03265 5.96715,-27.31122 5.96716,-12.39332 16.29493,-19.39325 10.44252,-7.11469 23.06535,-7.11469 z m 67.1305,1.03278 q 8.49172,0 14.57363,6.99993 l -6.99994,5.73765 q -3.21308,-3.44259 -6.54092,-5.39339 -3.21308,-2.06555 -7.34419,-2.06555 -3.78685,0 -7.34419,1.60654 -3.55734,1.60654 -5.8524,4.59012 -2.18031,2.86882 -2.18031,6.54092 0,3.67209 2.29506,6.77043 2.29506,3.09833 5.8524,4.93437 3.6721,1.7213 7.5737,1.7213 1.49179,0 2.86883,-0.11475 1.49178,-0.11476 2.40981,-0.68852 l 1.03278,3.21308 q -9.98352,2.98358 -17.90147,9.5245 -7.91796,6.42617 -7.91796,15.60641 0,6.88518 4.01636,11.36055 4.01635,4.36061 11.01628,4.36061 5.73765,0 11.2458,-2.18031 5.62289,-2.29506 9.86876,-5.8524 4.24586,-3.55734 6.54092,-7.34419 l 2.63932,2.29506 q -5.6229,9.40974 -15.03265,15.72116 -9.40974,6.19666 -20.31128,6.19666 -6.42617,0 -11.59005,-2.52457 -5.04913,-2.63931 -8.03271,-7.22943 -2.86883,-4.70488 -2.86883,-10.78679 0,-8.26221 6.31142,-14.91789 6.31141,-6.77042 15.3769,-10.78678 -5.73765,-1.37703 -9.18024,-5.39339 -3.44259,-4.13111 -3.44259,-9.5245 0,-7.22944 4.47537,-12.27857 4.59012,-5.04913 11.24579,-7.5737 6.77043,-2.52456 13.1966,-2.52456 z m 41.65542,-1.60654 v 22.26208 q 2.52457,-9.63925 8.37697,-15.83592 5.96716,-6.31141 15.72116,-6.31141 6.88518,0 10.44252,4.70487 3.55735,4.70487 3.55735,11.70481 v 55.08144 q 0,3.21308 1.26228,5.16388 1.37704,1.9508 3.78685,1.9508 1.9508,0 3.9016,-1.14753 1.9508,-1.26228 2.98358,-2.98357 l 1.60654,1.49178 q -1.49179,3.44259 -4.81963,5.96716 -3.32783,2.40981 -7.68845,2.40981 -5.27863,0 -8.49172,-3.55734 -3.21308,-3.6721 -3.21308,-10.55728 v -49.22903 q 0,-6.42617 -1.49179,-10.67203 -1.37704,-4.24586 -6.54092,-4.24586 -6.54092,0 -10.90154,6.54092 -4.36061,6.42617 -6.42616,15.14739 -2.06556,8.72123 -2.06556,15.03265 v 38.21275 l -10.55727,4.24586 v -81.35988 z m 93.17949,0.91802 q 10.90154,0 19.16376,6.08191 8.37696,6.08191 12.85233,15.95067 4.59012,9.86875 4.59012,20.65554 0,10.67202 -4.13111,20.42603 -4.01635,9.63925 -12.27857,15.72116 -8.26221,6.08191 -20.19653,6.08191 -11.01628,0 -19.50801,-6.08191 -8.49172,-6.08191 -13.08184,-15.83591 -4.47536,-9.75401 -4.47536,-20.31128 0,-10.90154 4.01635,-20.65554 4.13111,-9.75401 12.50808,-15.83592 8.37697,-6.19666 20.54078,-6.19666 z m -5.27863,6.31141 q -7.3442,0 -12.16382,4.36062 -4.81963,4.24586 -6.99993,10.78678 -2.18031,6.42617 -2.18031,12.85234 0,9.98351 3.21308,20.08177 3.32784,9.98351 10.32777,16.86869 7.11469,6.77043 17.78672,6.77043 7.34419,0 12.04906,-4.36061 4.81963,-4.36062 6.99994,-10.78679 2.1803,-6.42616 2.1803,-12.96709 0,-9.754 -3.21308,-19.85226 -3.21309,-10.09827 -10.32777,-16.8687 -6.99993,-6.88518 -17.67196,-6.88518 z m 81.24516,-6.88517 q 7.68845,0 14.57363,3.55734 6.88518,3.44259 11.59005,9.86876 l -8.95073,11.01628 q -2.86883,-8.03271 -8.60648,-13.31134 -5.62289,-5.27864 -13.4261,-5.27864 -7.45894,0 -11.59005,4.24586 -4.13111,4.24586 -4.13111,10.90153 0,6.19667 2.98358,10.32777 2.98358,4.13111 7.22944,6.65568 4.24586,2.52456 11.4753,5.73765 6.88518,3.09833 10.78678,5.39339 4.01636,2.29506 6.77043,5.96715 2.75407,3.6721 2.75407,9.06549 0.11475,9.98351 -6.42617,15.3769 -6.54092,5.39339 -16.98344,5.39339 -7.68845,0 -14.68839,-2.98357 -6.88518,-3.09834 -11.01628,-9.295 l 8.95073,-9.98351 q 3.9016,9.18024 9.5245,13.08184 5.6229,3.78685 10.90153,3.78685 4.93438,0 8.37697,-2.63932 3.55735,-2.75407 3.55735,-7.11468 0,-4.01636 -2.52457,-6.99993 -2.40981,-3.09834 -6.08191,-5.16389 -3.6721,-2.18031 -9.98351,-5.04913 -8.03271,-3.6721 -12.85234,-6.65568 -4.81962,-2.98357 -8.26221,-7.8032 -3.44259,-4.93438 -3.44259,-11.93431 0,-7.34419 3.78685,-13.31135 3.9016,-6.08191 10.67203,-9.40974 6.77042,-3.44259 15.03264,-3.44259 z"
         id="text2"
         transform="scale(0.97018098,1.0307355)"
         aria-label="DAPTÓGENOS" />
      <path
         d="m 227.63357,74.450306 v 45.757734 q 3.68166,-14.55131 10.16838,-24.719694 6.48673,-10.343703 14.02536,-15.427896 7.53864,-5.25951 14.02536,-5.25951 6.66205,0 9.99307,4.558242 3.33103,4.558242 3.33103,12.096873 v 28.576675 q 3.68165,-14.55131 10.16838,-24.719701 6.48673,-10.168386 13.85005,-15.252579 7.53863,-5.25951 14.20067,-5.25951 6.66205,0 9.99307,4.558242 3.33102,4.382925 3.33102,12.096873 V 183.6728 q 0,4.90887 2.10381,7.88926 2.1038,2.98039 5.78546,2.98039 2.80507,0 5.61014,-1.75317 2.98039,-1.92849 4.90888,-4.55824 l 2.45444,2.27912 q -2.45444,5.43483 -7.53863,9.11648 -4.90888,3.68166 -11.74624,3.68166 -7.88927,0 -12.79814,-5.43483 -4.90888,-5.61014 -4.90888,-16.12916 V 96.014297 q 0,-4.032291 -1.57785,-6.136095 -1.57786,-2.279121 -4.20761,-2.279121 -5.43483,0 -12.62282,8.415216 -7.01268,8.415213 -12.09688,23.141843 -5.08419,14.72663 -5.08419,32.78428 v 47.16027 l -16.12916,5.78546 V 96.014297 q 0,-4.032291 -1.40254,-6.136095 -1.40254,-2.279121 -3.85697,-2.279121 -5.43483,0 -12.62283,8.415216 -7.188,8.415213 -12.27219,23.141843 -5.08419,14.72663 -5.08419,32.78428 v 47.16027 l -16.30448,5.78546 V 80.761718 Z"
         id="text3"
         style="font-size:175.317px;line-height:0;font-family:Amita;-inkscape-font-specification:'Amita, Normal';fill:#6a1c1c;stroke-width:1.19534"
         transform="scale(0.97018098,1.0307355)"
         aria-label="M" />
      <path
         d="m 95.686735,236.80741 q -19.460187,2.62975 -35.0634,13.49941 -15.603213,10.69433 -24.54438,27.17413 -8.76585,16.30448 -8.76585,35.41404 0,15.95384 6.136095,25.24564 6.136095,9.29181 16.129164,9.29181 9.817752,0 18.758919,-13.49941 9.116484,-13.67473 14.551311,-35.58935 5.610144,-22.08995 5.610144,-45.93306 l 16.479802,-6.48673 V 337.79 q 0,4.90888 2.1038,7.88927 2.1038,2.98038 5.78546,2.98038 2.80507,0 5.78546,-1.75317 2.98039,-1.92848 4.55824,-4.55824 l 2.45444,2.27912 q -2.45444,5.43483 -7.53863,9.11649 -5.08419,3.68165 -11.57092,3.68165 -8.064583,0 -13.148776,-5.61014 -4.908876,-5.61014 -4.908876,-15.95385 v -33.48554 h -0.876585 q -12.622824,56.10144 -42.777348,56.10144 -15.603213,0 -25.070331,-10.86966 -9.467118,-11.04497 -9.467118,-30.15452 0,-21.91463 11.570922,-41.1995 11.570922,-19.28487 31.206426,-31.38174 19.635504,-12.09687 42.602031,-13.14878 z"
         id="text4"
         style="font-size:175.317px;line-height:0;font-family:Amita;-inkscape-font-specification:'Amita, Normal';fill:#6a1c1c;stroke-width:1.19534"
         transform="scale(0.97018098,1.0307355)"
         aria-label="A" />
      <path
         d="m 409.34026,162.00359 q 0,3.21309 1.26228,5.16389 1.37703,1.9508 3.78685,1.9508 1.83605,0 3.78685,-1.14753 1.9508,-1.26228 3.09833,-2.98358 l 1.49179,1.49179 q -1.37704,3.44259 -4.81963,5.96716 -3.32784,2.40981 -7.8032,2.40981 -5.04914,0 -8.26222,-3.55734 -3.21308,-3.6721 -3.21308,-10.44253 v -8.03271 q -2.52457,9.40975 -8.49173,15.95067 -5.96715,6.54092 -15.3769,6.54092 -6.88518,0 -10.44252,-4.59012 -3.55734,-4.70487 -3.55734,-11.81956 V 96.250127 l 10.67203,-3.786849 v 61.851862 q 0,4.59012 0.34425,7.45895 0.34426,2.75407 2.06556,5.04913 1.83605,2.29506 5.73765,2.29506 6.54092,0 10.78678,-6.54092 4.24586,-6.65567 6.19666,-15.3769 2.06556,-8.83598 2.06556,-15.1474 V 96.36488 l 10.67203,-3.901602 z m 35.57342,-71.605866 v 22.262086 q 2.52457,-9.63926 8.37697,-15.835918 5.96716,-6.311415 15.72116,-6.311415 6.88518,0 10.44253,4.704873 3.55734,4.704873 3.55734,11.70481 v 55.08143 q 0,3.21309 1.26228,5.16389 1.37704,1.9508 3.78685,1.9508 1.9508,0 3.9016,-1.14753 1.95081,-1.26228 2.98358,-2.98358 l 1.60654,1.49179 q -1.49178,3.44259 -4.81962,5.96716 -3.32784,2.40981 -7.68845,2.40981 -5.27864,0 -8.49172,-3.55734 -3.21309,-3.6721 -3.21309,-10.55728 v -49.22903 q 0,-6.42617 -1.49179,-10.67203 -1.37703,-4.245864 -6.54092,-4.245864 -6.54092,0 -10.90153,6.540924 -4.36062,6.42616 -6.42617,15.14739 -2.06556,8.72123 -2.06556,15.03265 v 38.21274 l -10.55727,4.24586 V 94.414079 Z m 95.01561,2.065554 q 13.77036,0 20.9998,7.803202 7.22944,7.68845 7.22944,20.88505 0,14.57363 -9.18024,26.8522 -9.06549,12.16382 -23.52437,19.50801 -14.34412,7.34419 -29.37676,8.26221 v -63.57316 l 10.67203,-3.9016 v 61.2781 q 11.36054,-2.98358 20.19652,-9.63925 8.83598,-6.77043 13.77036,-16.29493 5.04913,-9.52449 5.04913,-20.54078 0,-6.31142 -2.1803,-11.70481 -2.18031,-5.39339 -6.88518,-8.83598 -4.59012,-3.442588 -11.70481,-3.442588 -9.06548,0 -18.01622,3.557338 -8.83598,3.55735 -15.95067,9.5245 l -2.29506,-2.40981 q 7.3442,-7.22944 19.27851,-12.27857 11.93431,-5.049132 21.91782,-5.049132 z m 75.04838,-1.14753 q 10.90153,0 19.16375,6.081909 8.37697,6.081913 12.85234,15.950663 4.59012,9.86876 4.59012,20.65554 0,10.67203 -4.13111,20.42604 -4.01636,9.63925 -12.27857,15.72116 -8.26222,6.08191 -20.19653,6.08191 -11.01629,0 -19.50801,-6.08191 -8.49172,-6.08191 -13.08184,-15.83592 -4.47537,-9.754 -4.47537,-20.31128 0,-10.90153 4.01636,-20.65554 4.1311,-9.754 12.50807,-15.83591 8.37697,-6.196662 20.54079,-6.196662 z m -5.27864,6.311415 q -7.34419,0 -12.16382,4.360617 -4.81962,4.24586 -6.99993,10.78678 -2.18031,6.42617 -2.18031,12.85233 0,9.98352 3.21309,20.08178 3.32783,9.98351 10.32777,16.86869 7.11468,6.77043 17.78671,6.77043 7.34419,0 12.04907,-4.36062 4.81962,-4.36061 6.99993,-10.78678 2.18031,-6.42617 2.18031,-12.96709 0,-9.754 -3.21309,-19.85227 -3.21308,-10.09826 -10.32777,-16.86869 -6.99993,-6.885177 -17.67196,-6.885177 z"
         id="text1-0"
         style="font-size:114.753px;line-height:0;font-family:Amita;-inkscape-font-specification:'Amita, Normal';fill:#6a1c1c;stroke-width:1.19534"
         transform="scale(0.970181,1.0307355)"
         aria-label="UNDO" />
      <path
         style="font-size:114.753px;line-height:0;font-family:Amita;-inkscape-font-specification:'Amita, Normal';fill:#6a1c1c;stroke-width:1.19534"
         d="m 164.82533,245.82247 q 13.77036,0 20.9998,7.8032 7.22944,7.68845 7.22944,20.88505 0,14.57363 -9.18024,26.8522 -9.06549,12.16382 -23.52436,19.50801 -14.34413,7.34419 -29.37677,8.26222 v -63.57316 l 10.67203,-3.90161 v 61.2781 q 11.36054,-2.98357 20.19653,-9.63925 8.83598,-6.77042 13.77035,-16.29492 5.04914,-9.5245 5.04914,-20.54079 0,-6.31141 -2.18031,-11.70481 -2.18031,-5.39339 -6.88518,-8.83598 -4.59012,-3.44259 -11.70481,-3.44259 -9.06548,0 -18.01622,3.55735 -8.83598,3.55734 -15.95066,9.5245 l -2.29506,-2.40982 q 7.34419,-7.22944 19.2785,-12.27857 11.93431,-5.04913 21.91782,-5.04913 z m 92.26127,3.44259 q -12.73759,1.72129 -22.9506,8.83598 -10.21302,6.99993 -16.06542,17.78672 -5.73765,10.67202 -5.73765,23.1801 0,10.44252 4.01635,16.52443 4.01636,6.08191 10.55728,6.08191 6.42616,0 12.27857,-8.83598 5.96715,-8.95073 9.5245,-23.29486 3.67209,-14.45888 3.67209,-30.06528 l 10.78678,-4.24586 v 60.13057 q 0,3.21308 1.37704,5.16388 1.37704,1.9508 3.78685,1.9508 1.83605,0 3.78685,-1.14753 1.9508,-1.26228 2.98358,-2.98358 l 1.60654,1.49179 q -1.60654,3.55735 -4.93438,5.96716 -3.32784,2.40981 -7.5737,2.40981 -5.27864,0 -8.60647,-3.67209 -3.21309,-3.6721 -3.21309,-10.44253 v -21.91782 h -0.57376 q -8.26222,36.72096 -27.99973,36.72096 -10.21302,0 -16.40968,-7.11469 -6.19666,-7.22943 -6.19666,-19.73751 0,-14.34413 7.57369,-26.96696 7.5737,-12.62283 20.42604,-20.54078 12.85233,-7.91796 27.88498,-8.60648 z m 63.4583,-3.6721 q 10.90153,0 17.78671,5.96716 6.99994,5.8524 6.99994,17.67196 0,9.40975 -6.31142,17.55721 -6.31141,8.03271 -16.18017,12.85234 -9.754,4.81962 -19.62276,4.81962 -1.03278,0 -1.26229,-0.2295 l 0.57377,-3.09834 q 7.68845,-0.80327 15.03264,-4.81962 7.34419,-4.01636 11.93431,-10.44252 4.70488,-6.54092 4.70488,-14.45888 0,-8.60648 -5.27864,-13.77036 -5.16389,-5.16389 -15.3769,-5.16389 -7.91796,0 -16.75394,3.78685 -8.72123,3.6721 -15.26215,9.63925 l -2.18031,-2.40981 q 8.37697,-7.8032 19.50801,-12.85233 11.2458,-5.04914 21.68832,-5.04914 z m -23.29486,79.52383 -10.55727,4.01636 v -62.76989 l 10.55727,-4.13111 z m 111.08102,-81.01562 q -4.47537,5.85241 -11.13104,9.63926 -6.65568,3.67209 -13.77036,3.67209 -2.29506,2.86883 -3.32784,5.39339 -1.03278,2.52457 -1.03278,5.96716 v 37.40948 q 0,8.95073 -2.75407,14.11462 -2.75407,5.04913 -8.83598,9.754 l -2.40981,-2.29506 q 1.72129,-1.9508 2.52456,-5.04913 0.91803,-3.09833 0.91803,-6.19666 v -41.08158 q 0,-5.16388 2.75407,-9.86875 2.75407,-4.70488 6.99993,-8.14747 l -15.83591,-0.11475 q -4.36062,0 -7.45895,1.60654 -3.09833,1.49179 -6.08191,4.81963 l -2.1803,-1.7213 q 5.73765,-6.99993 12.04906,-10.78678 6.42617,-3.78685 13.08184,-3.78685 h 9.5245 q 8.26222,0 15.3769,-0.80327 7.11469,-0.91802 10.32777,-3.78685 z m 34.08162,0.57377 q 10.90154,0 19.16375,6.08191 8.37697,6.08191 12.85234,15.95067 4.59012,9.86875 4.59012,20.65554 0,10.67202 -4.13111,20.42603 -4.01635,9.63925 -12.27857,15.72116 -8.26222,6.08191 -20.19653,6.08191 -11.01629,0 -19.50801,-6.08191 -8.49172,-6.08191 -13.08184,-15.83591 -4.47537,-9.75401 -4.47537,-20.31128 0,-10.90154 4.01636,-20.65554 4.13111,-9.75401 12.50808,-15.83592 8.37696,-6.19666 20.54078,-6.19666 z m -5.27864,6.31141 q -7.34419,0 -12.16381,4.36062 -4.81963,4.24586 -6.99994,10.78678 -2.1803,6.42617 -2.1803,12.85234 0,9.98351 3.21308,20.08177 3.32784,9.98351 10.32777,16.86869 7.11469,6.77043 17.78671,6.77043 7.3442,0 12.04907,-4.36062 4.81963,-4.36061 6.99993,-10.78678 2.18031,-6.42617 2.18031,-12.96709 0,-9.754 -3.21308,-19.85226 -3.21309,-10.09827 -10.32777,-16.8687 -6.99994,-6.88518 -17.67197,-6.88518 z m 9.295,-30.98331 -13.99987,16.06542 1.7213,2.29506 19.2785,-9.98351 z m 87.3271,24.32764 q 6.88518,0 11.24579,2.98358 4.36062,2.98358 4.36062,7.8032 0,4.70488 -3.78685,9.40975 -3.6721,4.70487 -9.63925,7.91796 -5.85241,3.21308 -12.04907,3.67209 l -1.14753,-2.18031 q 6.08191,-1.49178 10.32777,-5.8524 4.24586,-4.47537 4.24586,-9.18024 0,-3.78685 -2.63932,-5.96715 -2.63932,-2.29506 -6.99993,-2.29506 -7.8032,0 -13.99987,5.16388 -6.19666,5.04913 -9.754,13.99987 -3.44259,8.95073 -3.44259,20.19652 0,13.77036 4.59012,21.57357 4.59012,7.8032 13.77036,7.8032 5.27864,0 10.09826,-3.78685 4.93438,-3.78685 8.03271,-9.754 3.09833,-6.08191 3.21309,-12.50808 l 10.90153,-3.78685 v 46.24546 l -10.09826,4.13111 v -35.11442 h -0.68852 q -1.7213,7.22944 -5.73765,12.62283 -3.9016,5.39339 -9.29499,8.26222 -5.27864,2.86882 -11.01629,2.86882 -7.80321,0 -13.65561,-3.67209 -5.8524,-3.78685 -9.06548,-10.67203 -3.09834,-6.88518 -3.09834,-16.06542 0,-15.03265 5.96716,-27.31122 5.96716,-12.39332 16.29493,-19.39325 10.44252,-7.11469 23.06535,-7.11469 z m 67.13049,1.03278 q 8.49172,0 14.57363,6.99993 l -6.99993,5.73765 q -3.21308,-3.44259 -6.54092,-5.39339 -3.21308,-2.06555 -7.34419,-2.06555 -3.78685,0 -7.34419,1.60654 -3.55735,1.60654 -5.85241,4.59012 -2.1803,2.86882 -2.1803,6.54092 0,3.67209 2.29506,6.77043 2.29506,3.09833 5.8524,4.93437 3.67209,1.7213 7.5737,1.7213 1.49179,0 2.86882,-0.11475 1.49179,-0.11476 2.40981,-0.68852 l 1.03278,3.21308 q -9.98351,2.98358 -17.90147,9.5245 -7.91795,6.42617 -7.91795,15.60641 0,6.88518 4.01635,11.36055 4.01636,4.36061 11.01629,4.36061 5.73765,0 11.24579,-2.18031 5.6229,-2.29506 9.86876,-5.8524 4.24586,-3.55734 6.54092,-7.34419 l 2.63932,2.29506 q -5.6229,9.40974 -15.03264,15.72116 -9.40975,6.19666 -20.31128,6.19666 -6.42617,0 -11.59006,-2.52457 -5.04913,-2.63931 -8.0327,-7.22943 -2.86883,-4.70488 -2.86883,-10.78679 0,-8.26221 6.31142,-14.91789 6.31141,-6.77042 15.3769,-10.78678 -5.73765,-1.37703 -9.18024,-5.39339 -3.44259,-4.13111 -3.44259,-9.5245 0,-7.22944 4.47536,-12.27857 4.59012,-5.04913 11.2458,-7.5737 6.77042,-2.52456 13.19659,-2.52456 z m 41.65543,-1.60654 V 266.019 q 2.52456,-9.63925 8.37697,-15.83592 5.96715,-6.31141 15.72116,-6.31141 6.88518,0 10.44252,4.70487 3.55734,4.70487 3.55734,11.70481 v 55.08144 q 0,3.21308 1.26229,5.16388 1.37703,1.9508 3.78684,1.9508 1.95081,0 3.90161,-1.14753 1.9508,-1.26228 2.98357,-2.98358 l 1.60655,1.49179 q -1.49179,3.44259 -4.81963,5.96716 -3.32784,2.40981 -7.68845,2.40981 -5.27864,0 -8.49172,-3.55734 -3.21309,-3.6721 -3.21309,-10.55728 v -49.22903 q 0,-6.42617 -1.49179,-10.67203 -1.37703,-4.24586 -6.54092,-4.24586 -6.54092,0 -10.90153,6.54092 -4.36061,6.42617 -6.42617,15.14739 -2.06555,8.72123 -2.06555,15.03265 v 38.21275 l -10.55728,4.24586 v -81.35988 z m 93.17949,0.91802 q 10.90154,0 19.16375,6.08191 8.37697,6.08191 12.85234,15.95067 4.59012,9.86875 4.59012,20.65554 0,10.67202 -4.13111,20.42603 -4.01636,9.63925 -12.27857,15.72116 -8.26222,6.08191 -20.19653,6.08191 -11.01629,0 -19.50801,-6.08191 -8.49172,-6.08191 -13.08184,-15.83591 -4.47537,-9.75401 -4.47537,-20.31128 0,-10.90154 4.01636,-20.65554 4.1311,-9.75401 12.50807,-15.83592 8.37697,-6.19666 20.54079,-6.19666 z m -5.27864,6.31141 q -7.34419,0 -12.16382,4.36062 -4.81962,4.24586 -6.99993,10.78678 -2.18031,6.42617 -2.18031,12.85234 0,9.98351 3.21309,20.08177 3.32784,9.98351 10.32777,16.86869 7.11468,6.77043 17.78671,6.77043 7.3442,0 12.04907,-4.36062 4.81962,-4.36061 6.99993,-10.78678 2.18031,-6.42617 2.18031,-12.96709 0,-9.754 -3.21309,-19.85226 -3.21308,-10.09827 -10.32777,-16.8687 -6.99993,-6.88518 -17.67196,-6.88518 z m 81.24516,-6.88518 q 7.68846,0 14.57364,3.55735 6.88518,3.44259 11.59005,9.86876 l -8.95074,11.01628 q -2.86882,-8.03271 -8.60647,-13.31134 -5.6229,-5.27864 -13.4261,-5.27864 -7.45895,0 -11.59005,4.24586 -4.13111,4.24586 -4.13111,10.90153 0,6.19667 2.98358,10.32777 2.98357,4.13111 7.22943,6.65568 4.24587,2.52456 11.4753,5.73765 6.88518,3.09833 10.78679,5.39339 4.01635,2.29506 6.77042,5.96715 2.75408,3.6721 2.75408,9.06549 0.11475,9.98351 -6.42617,15.3769 -6.54092,5.39339 -16.98345,5.39339 -7.68845,0 -14.68838,-2.98357 -6.88518,-3.09834 -11.01629,-9.295 l 8.95074,-9.98351 q 3.9016,9.18024 9.52449,13.08184 5.6229,3.78685 10.90154,3.78685 4.93438,0 8.37697,-2.63932 3.55734,-2.75407 3.55734,-7.11468 0,-4.01636 -2.52456,-6.99994 -2.40982,-3.09833 -6.08191,-5.16388 -3.6721,-2.18031 -9.98351,-5.04913 -8.03271,-3.6721 -12.85234,-6.65568 -4.81963,-2.98357 -8.26222,-7.8032 -3.44259,-4.93438 -3.44259,-11.93431 0,-7.34419 3.78685,-13.31135 3.9016,-6.08191 10.67203,-9.40975 6.77043,-3.44259 15.03264,-3.44259 z"
         id="text2-1"
         transform="scale(0.970181,1.0307355)"
         aria-label="DAPTÓGENOS" />
      <path
         d="m 230.5835,72.42432 v 45.75774 q 3.68166,-14.55131 10.16839,-24.7197 6.48673,-10.343703 14.02536,-15.427896 7.53863,-5.25951 14.02536,-5.25951 6.66205,0 9.99307,4.558242 3.33102,4.558242 3.33102,12.096873 v 28.576671 q 3.68166,-14.55131 10.16839,-24.719697 6.48673,-10.168386 13.85004,-15.252579 7.53863,-5.25951 14.20068,-5.25951 6.66204,0 9.99307,4.558242 3.33102,4.382925 3.33102,12.096873 v 92.216741 q 0,4.90888 2.1038,7.88927 2.10381,2.98039 5.78547,2.98039 2.80507,0 5.61014,-1.75317 2.98039,-1.92849 4.90888,-4.55825 l 2.45443,2.27913 q -2.45443,5.43482 -7.53863,9.11648 -4.90887,3.68166 -11.74624,3.68166 -7.88926,0 -12.79814,-5.43483 -4.90887,-5.61014 -4.90887,-16.12916 V 93.988311 q 0,-4.032291 -1.57786,-6.136095 -1.57785,-2.279121 -4.2076,-2.279121 -5.43483,0 -12.62283,8.415216 -7.01268,8.415219 -12.09687,23.141849 -5.08419,14.72662 -5.08419,32.78427 v 47.16028 l -16.12917,5.78546 V 93.988311 q 0,-4.032291 -1.40253,-6.136095 -1.40254,-2.279121 -3.85698,-2.279121 -5.43483,0 -12.62282,8.415216 -7.188,8.415219 -12.27219,23.141849 -5.0842,14.72662 -5.0842,32.78427 v 47.16028 l -16.30448,5.78546 V 78.735732 Z"
         id="text3-7"
         style="font-size:175.317px;line-height:0;font-family:Amita;-inkscape-font-specification:'Amita, Normal';fill:#6a1c1c;stroke-width:1.19534"
         transform="scale(0.970181,1.0307355)"
         aria-label="M" />
      <path
         d="m 98.636673,234.78144 q -19.460187,2.62975 -35.0634,13.49941 -15.603213,10.69433 -24.54438,27.17413 -8.76585,16.30448 -8.76585,35.41404 0,15.95384 6.136095,25.24564 6.136095,9.29181 16.129164,9.29181 9.817752,0 18.758919,-13.49941 9.116484,-13.67473 14.551311,-35.58936 5.610144,-22.08994 5.610144,-45.93305 l 16.479794,-6.48673 v 91.86611 q 0,4.90888 2.10381,7.88927 2.1038,2.98038 5.78546,2.98038 2.80507,0 5.78546,-1.75317 2.98039,-1.92848 4.55824,-4.55824 l 2.45444,2.27912 q -2.45444,5.43483 -7.53863,9.11649 -5.08419,3.68165 -11.57092,3.68165 -8.06458,0 -13.148778,-5.61014 -4.908876,-5.61014 -4.908876,-15.95385 V 300.35 h -0.876585 q -12.622824,56.10144 -42.777348,56.10144 -15.603213,0 -25.070331,-10.86966 -9.467118,-11.04497 -9.467118,-30.15452 0,-21.91463 11.570922,-41.1995 11.570922,-19.28487 31.206426,-31.38174 19.635504,-12.09687 42.602031,-13.14878 z"
         id="text4-0"
         style="font-size:175.317px;line-height:0;font-family:Amita;-inkscape-font-specification:'Amita, Normal';fill:#6a1c1c;stroke-width:1.19534"
         transform="scale(0.970181,1.0307355)"
         aria-label="A" />
    </g>
  </g>
</svg>
