<?xml version="1.0" encoding="UTF-8" standalone="no"?>
<!-- Created with Inkscape (http://www.inkscape.org/) -->

<svg
   width="181.29745mm"
   height="142.45119mm"
   viewBox="0 0 181.29745 142.45119"
   version="1.1"
   id="svg1"
   xml:space="preserve"
   inkscape:version="1.3 (0e150ed6c4, 2023-07-21)"
   sodipodi:docname="potencia_polvo.svg"
   xmlns:inkscape="http://www.inkscape.org/namespaces/inkscape"
   xmlns:sodipodi="http://sodipodi.sourceforge.net/DTD/sodipodi-0.dtd"
   xmlns="http://www.w3.org/2000/svg"
   xmlns:svg="http://www.w3.org/2000/svg"><sodipodi:namedview
     id="namedview1"
     pagecolor="#ffffff"
     bordercolor="#000000"
     borderopacity="0.25"
     inkscape:showpageshadow="2"
     inkscape:pageopacity="0.0"
     inkscape:pagecheckerboard="0"
     inkscape:deskcolor="#d1d1d1"
     inkscape:document-units="mm"
     showgrid="false"
     inkscape:zoom="0.48907828"
     inkscape:cx="341.45863"
     inkscape:cy="270.91778"
     inkscape:window-width="1360"
     inkscape:window-height="745"
     inkscape:window-x="-8"
     inkscape:window-y="-8"
     inkscape:window-maximized="1"
     inkscape:current-layer="layer1" /><defs
     id="defs1" /><g
     inkscape:label="Capa 1"
     inkscape:groupmode="layer"
     id="layer1"
     style="display:inline"
     transform="translate(-14.037512,-77.054265)"><path
       id="path1"
       style="display:inline;fill:#001928;fill-opacity:0.823529;stroke:none"
       d="M 105.72184 77.07907 C 99.100869 76.739128 92.464547 79.884012 87.920858 85.658908 C 86.291873 87.729298 82.968432 91.370084 83.245691 94.257866 C 83.165491 94.707496 83.131526 95.149361 83.198148 95.570964 C 83.491888 97.429818 85.032926 98.332314 86.611894 98.242636 C 87.532635 98.325049 88.511298 98.07086 89.304236 97.428732 C 91.965746 95.273407 93.381089 91.707288 95.827352 89.28711 C 98.485676 86.657133 101.57805 85.329898 104.68314 85.261516 C 107.79555 85.337646 110.89684 86.678236 113.56374 89.282976 C 116.47808 92.129408 118.49339 95.79168 120.80774 99.111317 C 125.84068 106.33041 130.62641 113.72168 135.59753 120.98337 C 143.05779 131.88108 150.43995 142.83336 157.81117 153.7917 C 162.11655 160.19224 167.42898 166.51847 170.66051 173.54708 C 172.01911 176.50203 172.58921 179.56423 173.30893 182.67211 L 36.063558 182.67211 C 36.783148 179.57313 37.360284 176.51121 38.659782 173.54708 C 40.819723 168.6203 44.544444 164.21931 47.556913 159.78875 C 53.223282 151.45501 58.906156 143.12458 64.499031 134.7417 C 67.176675 130.7283 69.981898 126.79582 72.604997 122.74708 C 73.649343 121.13514 74.981239 119.15376 74.111881 117.1712 C 74.030412 116.98541 73.920993 116.84433 73.820943 116.68802 C 73.775322 116.48081 73.721314 116.27349 73.630257 116.06584 C 72.532188 113.5617 69.636469 113.78445 67.905025 115.41885 C 64.275233 118.84521 61.65561 124.22053 58.851831 128.34416 C 52.311019 137.96399 45.778416 147.59532 39.322274 157.27211 C 34.030458 165.20374 28.737322 172.73498 28.621635 182.67211 C 25.17944 182.67211 19.400916 181.56964 16.319543 183.25243 C 14.622119 184.17943 14.040927 185.8011 14.102108 187.6563 C 13.593598 191.56799 16.855248 197.14964 18.810347 199.27006 C 21.424015 202.10473 25.764181 202.61608 28.155513 205.24644 C 31.193027 208.58754 31.513027 212.87912 35.631026 215.74451 C 39.754537 218.61373 45.055084 219.39143 50.487484 219.48381 C 55.749652 219.61877 61.168878 219.05542 65.792492 219.05542 L 134.40794 219.05542 L 134.93711 219.05542 L 155.22166 219.05542 C 157.33865 219.05542 159.52215 219.16219 161.69 219.11691 C 163.98822 219.09396 166.27326 218.93272 168.45083 218.29577 C 172.64154 217.06997 176.28144 214.33476 178.54168 210.58875 C 179.53606 208.94074 179.92154 206.67134 181.21697 205.24644 C 183.60831 202.61608 187.94846 202.10475 190.56214 199.27006 C 192.86607 196.77129 196.99401 189.46248 194.61305 185.74996 C 194.31053 184.71938 193.69718 183.84161 192.61834 183.25243 C 189.6458 181.62906 184.20551 182.58099 180.73173 182.65144 C 180.48332 178.4526 179.35533 174.60843 177.71228 170.97308 C 174.88694 164.2112 170.23153 158.19153 166.08766 151.98044 C 155.92102 136.74205 145.45048 121.70628 135.27817 106.47211 C 129.88246 98.391417 124.71694 87.876176 117.16817 81.638998 C 113.66173 78.741802 109.69442 77.283035 105.72184 77.07907 z M 78.72452 102.41189 C 78.29613 102.3937 77.834786 102.47221 77.349927 102.67234 C 75.803271 103.31072 75.302914 104.68018 75.471488 105.98428 C 75.073042 107.93387 76.476008 110.2299 78.694547 110.05897 C 79.162597 110.10785 79.669101 110.05471 80.211767 109.84348 C 82.44704 108.97341 82.559503 106.57253 81.539852 104.98951 C 81.197034 103.64964 80.170708 102.47331 78.72452 102.41189 z M 94.919914 125.75258 C 94.498353 125.72165 94.040977 125.78516 93.557206 125.96756 C 91.894609 126.59441 91.356594 128.03373 91.525805 129.39164 C 91.132926 131.33889 92.476762 133.6016 94.649129 133.4348 C 95.0979 133.48417 95.584934 133.43472 96.106921 133.23792 C 98.457467 132.35169 98.619836 129.84867 97.578666 128.25166 C 97.253328 126.96646 96.293109 125.85335 94.919914 125.75258 z M 105.1503 149.38835 C 104.72874 149.35742 104.27188 149.42144 103.78811 149.60384 C 102.12528 150.23078 101.58725 151.67035 101.75671 153.02844 C 101.36433 154.97553 102.70742 157.23788 104.87951 157.07109 C 105.3283 157.12046 105.81529 157.0705 106.3373 156.87368 C 108.68779 155.98747 108.85015 153.48496 107.80905 151.88794 C 107.48375 150.60269 106.52354 149.48911 105.1503 149.38835 z M 140.7812 161.73437 C 140.35975 161.70416 139.90278 161.7683 139.41849 161.95089 C 137.74406 162.5822 137.19432 164.04612 137.36228 165.41941 C 136.97446 167.36393 138.28189 169.60291 140.45977 169.43571 C 140.92163 169.48565 141.42503 169.43285 141.96872 169.22332 C 144.31157 168.32037 144.47587 165.81506 143.43478 164.22259 C 143.11048 162.94024 142.15309 161.83269 140.7812 161.73437 z M 71.989013 162.4413 C 71.567453 162.41037 71.110593 162.47439 70.626823 162.65679 C 68.964076 163.2837 68.426054 164.72285 68.595422 166.08087 C 68.202764 168.02777 69.545511 170.28952 71.717195 170.12352 C 72.166289 170.17312 72.653572 170.12361 73.176021 169.92663 C 75.52703 169.04022 75.689642 166.5363 74.647766 164.93934 C 74.322063 163.65473 73.361714 162.54202 71.989013 162.4413 z M 22.435449 190.83337 L 186.52621 190.83337 C 186.13927 191.67444 185.69905 192.47801 185.06273 193.2017 C 178.90158 200.20891 169.61902 194.11711 162.3375 197.20404 C 160.63247 197.92687 159.86556 199.38578 160.08234 200.76764 C 159.77742 202.07999 160.34875 203.51717 161.94941 204.36381 C 163.38678 205.12409 165.35197 205.26252 167.35477 205.21492 C 169.1128 205.20561 170.8119 205.05922 172.34826 204.99529 C 167.65504 214.05981 152.16549 210.89416 143.62702 210.89416 L 62.841251 210.89416 C 54.634428 210.89416 40.962312 213.68398 36.553967 204.94465 L 75.493709 204.94465 L 76.022876 204.94465 L 101.95204 204.94465 L 131.23294 204.94413 L 131.76211 204.94413 C 134.20801 204.94213 140.36128 204.04737 138.01909 200.05038 C 138.00074 200.01906 137.97645 199.99863 137.9576 199.96821 C 137.87669 199.64969 137.75423 199.31492 137.53747 198.94502 C 136.20944 196.67871 133.565 196.78569 131.27997 196.78339 L 115.05202 196.78339 L 46.966251 196.78339 C 39.023913 196.78339 26.649917 199.26362 22.435449 190.83337 z M 149.24735 197.01335 C 148.82579 196.98242 148.36893 197.04645 147.88516 197.22884 C 146.22254 197.8557 145.68452 199.295 145.85376 200.65292 C 145.461 202.60027 146.8045 204.86329 148.97708 204.69609 C 149.42573 204.74536 149.91254 204.69542 150.43435 204.49868 C 152.78551 203.61222 152.94819 201.10833 151.9061 199.51139 C 151.5804 198.22678 150.62006 197.11408 149.24735 197.01335 z " /></g></svg>
