<?xml version="1.0" encoding="UTF-8" standalone="no"?>
<!-- Created with Inkscape (http://www.inkscape.org/) -->

<svg
   width="158.70807mm"
   height="136.68881mm"
   viewBox="0 0 158.70807 136.68881"
   version="1.1"
   id="svg1"
   xml:space="preserve"
   inkscape:version="1.3 (0e150ed6c4, 2023-07-21)"
   sodipodi:docname="hongo_crudo.svg"
   xmlns:inkscape="http://www.inkscape.org/namespaces/inkscape"
   xmlns:sodipodi="http://sodipodi.sourceforge.net/DTD/sodipodi-0.dtd"
   xmlns="http://www.w3.org/2000/svg"
   xmlns:svg="http://www.w3.org/2000/svg"><sodipodi:namedview
     id="namedview1"
     pagecolor="#ffffff"
     bordercolor="#000000"
     borderopacity="0.25"
     inkscape:showpageshadow="2"
     inkscape:pageopacity="0.0"
     inkscape:pagecheckerboard="0"
     inkscape:deskcolor="#d1d1d1"
     inkscape:document-units="mm"
     inkscape:zoom="0.48907828"
     inkscape:cx="331.23532"
     inkscape:cy="234.11385"
     inkscape:window-width="1360"
     inkscape:window-height="745"
     inkscape:window-x="-8"
     inkscape:window-y="-8"
     inkscape:window-maximized="1"
     inkscape:current-layer="layer1" /><defs
     id="defs1" /><g
     inkscape:label="Capa 1"
     inkscape:groupmode="layer"
     id="layer1"
     transform="translate(-17.503712,-86.795147)"><path
       style="fill:#030303;stroke:none"
       d="m 53.092487,164.375 c 12.42056,-2.14201 24.939327,-0.43105 37.394445,-0.35278 l 1.411111,8.46667 c -4.127811,-0.74107 -8.254971,1.93413 -8.408864,6.35 -0.385851,11.07174 6.470223,20.83189 -1.391523,31.04444 -1.114456,1.4477 -2.457763,2.96915 -3.958,4.02659 -2.365575,1.66739 -6.41388,0.91292 -9.172169,0.91229 -10.037371,-0.002 -19.216855,-5.44274 -20.235645,-16.22777 -0.391899,-4.14868 1.007214,-8.62654 1.685362,-12.7 0.537607,-3.22926 1.195418,-9.27287 -4.026795,-8.61152 -4.332815,0.54871 -4.155084,6.40554 -4.742943,9.66986 -1.778458,9.87559 -2.142885,19.5989 5.154369,27.51477 6.701154,7.26923 15.276759,8.46856 24.635097,8.46856 12.61567,0 25.168156,-2.15805 30.877878,-15.16944 5.14596,-11.72668 -0.55248,-25.42001 -2.30288,-37.39445 6.58089,-0.0414 17.96727,-0.53251 22.88524,-5.35813 3.44675,-3.38202 3.42173,-8.83542 3.99041,-13.33909 1.53158,-12.12916 0.63053,-23.80715 -4.92839,-34.925 C 106.31203,85.455667 63.473701,76.973724 36.86471,99.468647 28.780376,106.30305 23.040577,115.1665 19.819618,125.21667 c -2.811073,8.77122 -2.715156,17.78036 -1.542734,26.81111 0.415164,3.19786 0.521487,6.89357 1.807795,9.87772 3.49114,8.09924 18.047815,8.06629 25.599475,8.8925 4.618735,0.50532 9.548421,-0.62928 7.408333,-6.423 M 67.909154,95.348485 c 21.176071,-2.168569 41.900906,10.757865 48.906716,30.926515 2.92948,8.43352 2.7818,16.6846 1.6499,25.4 -0.2832,2.18054 -0.0189,7.50443 -2.95788,7.8692 -2.35436,0.29221 -5.40408,-0.90029 -7.73485,-1.3224 -5.14665,-0.93205 -10.31942,-1.65528 -15.522219,-2.1967 -13.777621,-1.43374 -27.86579,-1.20466 -41.627778,0.23601 -5.334416,0.55843 -10.61611,1.41629 -15.875,2.4695 -1.701042,0.34067 -4.608962,1.56094 -6.147801,0.33268 -1.299934,-1.03758 -1.246922,-3.41698 -1.462365,-4.91885 -0.661983,-4.6147 -1.212288,-9.09127 -1.209225,-13.75833 0.01531,-23.31593 19.208542,-42.705618 41.980502,-45.037625 m 1.058323,4.673185 c -8.058682,0.47001 -16.553563,5.30545 -22.575609,10.35477 -2.774715,2.32653 -5.727242,8.61992 0.351365,9.09055 2.730114,0.21136 4.721842,-2.16591 6.702032,-3.67472 3.446799,-2.62628 7.180435,-4.70224 11.288889,-6.08925 2.393195,-0.80793 5.742694,-0.8799 7.655971,-2.64946 3.076029,-2.84495 0.377001,-7.253495 -3.422648,-7.03189 M 37.2196,123.42933 c -5.434291,1.56462 -3.245226,9.90307 2.103863,8.17652 4.936927,-1.5935 3.040545,-9.65769 -2.103863,-8.17652 m 129.82011,58.58456 c -16.02712,-3.95389 -34.77203,-3.95411 -50.8,0 -0.0634,-1.52773 -0.20536,-3.08113 -0.48656,-4.58606 -0.65794,-3.52121 -5.15885,-6.09946 -7.61723,-2.41894 -2.06273,3.08818 -0.25198,10.80785 2.21489,13.24101 4.23412,4.17629 11.40377,1.23577 16.47223,0.51677 11.91538,-1.69026 24.17413,-1.37798 35.98334,1.01617 4.21635,0.85481 8.96155,1.19461 11.42966,-3.18765 1.85764,-3.29835 1.9695,-8.63395 1.97568,-12.34241 0.023,-13.78941 -6.44112,-26.60245 -19.40257,-32.63831 -5.43699,-2.53189 -11.29894,-3.63503 -17.28611,-3.31139 -2.59033,0.14002 -5.96302,0.77479 -6.47719,3.84782 -0.33655,2.01144 1.04484,3.99476 2.95487,4.57031 2.31755,0.69833 5.32859,-0.0872 7.75566,0.049 4.04483,0.227 8.22277,1.76441 11.64166,3.89108 11.70566,7.28135 13.31735,18.87837 11.64167,31.35259 m -11.98893,9.13303 c -3.89665,1.24584 -2.74557,5.85 -2.21552,8.85864 1.06499,6.04502 1.13547,12.69017 -6.25666,14.474 -6.04339,1.45836 -16.40696,0.6895 -17.53035,-7.06567 -0.60475,-4.17481 1.62082,-8.19708 1.24747,-12.347 -0.27479,-3.05439 -3.57827,-4.86798 -6.24456,-3.13057 -2.11464,1.37796 -2.21128,4.40947 -2.61266,6.65812 -1.15896,6.49283 -1.71363,12.86117 2.78487,18.32535 5.85931,7.1171 19.89759,8.12923 27.99967,4.56376 8.33148,-3.66641 10.76513,-12.08706 9.37795,-20.41966 -0.57402,-3.44804 -0.98774,-11.69539 -6.55021,-9.91697 z"
       id="path1" /></g></svg>
