<?xml version="1.0" encoding="UTF-8" standalone="no"?>
<!-- Created with Inkscape (http://www.inkscape.org/) -->

<svg
   width="135.47011mm"
   height="135.46666mm"
   viewBox="0 0 135.47011 135.46666"
   version="1.1"
   id="svg1"
   xml:space="preserve"
   inkscape:version="1.3 (0e150ed6c4, 2023-07-21)"
   sodipodi:docname="potencia_puntos0.svg"
   xmlns:inkscape="http://www.inkscape.org/namespaces/inkscape"
   xmlns:sodipodi="http://sodipodi.sourceforge.net/DTD/sodipodi-0.dtd"
   xmlns="http://www.w3.org/2000/svg"
   xmlns:svg="http://www.w3.org/2000/svg"><sodipodi:namedview
     id="namedview1"
     pagecolor="#ffffff"
     bordercolor="#000000"
     borderopacity="0.25"
     inkscape:showpageshadow="2"
     inkscape:pageopacity="0.0"
     inkscape:pagecheckerboard="0"
     inkscape:deskcolor="#d1d1d1"
     inkscape:document-units="mm"
     inkscape:zoom="0.44349206"
     inkscape:cx="236.75734"
     inkscape:cy="312.2942"
     inkscape:window-width="907"
     inkscape:window-height="729"
     inkscape:window-x="426"
     inkscape:window-y="17"
     inkscape:window-maximized="0"
     inkscape:current-layer="layer1" /><defs
     id="defs1" /><g
     inkscape:label="Capa 1"
     inkscape:groupmode="layer"
     id="layer1"
     transform="translate(-42.63426,-65.695962)"><path
       d="m 110.36759,65.695962 c -37.349286,0 -67.73333,28.690711 -67.73333,63.951558 0.191911,24.15822 26.359556,23.81955 43.620268,14.67555 a 172.20071,172.20071 0 0 0 -4.109156,28.61733 28.222224,28.222224 0 0 0 56.444448,0 172.20071,172.20071 0 0 0 -4.10916,-28.62298 c 20.88444,10.65672 43.94764,7.30392 43.62027,-14.67555 0,-35.255197 -30.38405,-63.945908 -67.73334,-63.945908 z M 127.30093,172.9404 a 16.933334,16.933334 0 0 1 -33.866669,0 183.97502,183.97502 0 0 1 5.283199,-32.56844 53.893156,53.893156 0 0 1 23.30027,0 183.97502,183.97502 0 0 1 5.2832,32.56844 z m 28.22222,-33.86666 c -14.78845,-2.14489 -26.14507,-11.79689 -45.15556,-11.28889 -18.999196,-0.51364 -30.38404,9.14964 -45.155552,11.28889 -9.922934,0 -11.288889,-4.51556 -11.288889,-9.42622 0,-29.03503 25.320979,-52.662669 56.444441,-52.662669 31.12347,0 56.44445,23.627639 56.44445,52.662669 0,6.11293 -1.80058,9.42622 -11.28889,9.42622 z"
       id="path2"
       style="fill:#001928;stroke-width:5.64444;fill-opacity:0.82352942" /></g></svg>
