<?xml version="1.0" encoding="UTF-8" standalone="no"?>
<!-- Created with Inkscape (http://www.inkscape.org/) -->

<svg
   width="56.003254mm"
   height="181.12872mm"
   viewBox="0 0 56.003253 181.12872"
   version="1.1"
   id="svg1"
   xml:space="preserve"
   inkscape:version="1.3 (0e150ed6c4, 2023-07-21)"
   sodipodi:docname="potencia_colirio.svg"
   xmlns:inkscape="http://www.inkscape.org/namespaces/inkscape"
   xmlns:sodipodi="http://sodipodi.sourceforge.net/DTD/sodipodi-0.dtd"
   xmlns="http://www.w3.org/2000/svg"
   xmlns:svg="http://www.w3.org/2000/svg"><sodipodi:namedview
     id="namedview1"
     pagecolor="#ffffff"
     bordercolor="#000000"
     borderopacity="0.25"
     inkscape:showpageshadow="2"
     inkscape:pageopacity="0.0"
     inkscape:pagecheckerboard="0"
     inkscape:deskcolor="#d1d1d1"
     inkscape:document-units="mm"
     inkscape:zoom="0.48907828"
     inkscape:cx="55.205886"
     inkscape:cy="497.87531"
     inkscape:window-width="1360"
     inkscape:window-height="745"
     inkscape:window-x="-8"
     inkscape:window-y="-8"
     inkscape:window-maximized="1"
     inkscape:current-layer="layer1" /><defs
     id="defs1" /><g
     inkscape:label="Capa 1"
     inkscape:groupmode="layer"
     id="layer1"
     transform="translate(-76.910918,-58.268377)"><path
       id="path1"
       style="fill:#001928;stroke:none;fill-opacity:0.82352942"
       d="m 104.33966,58.280873 c -2.06504,0.106432 -4.10653,0.894461 -5.713863,2.428792 -4.402768,4.20326 -3.436966,13.361705 -4.613672,18.998841 -2.133082,10.218638 -7.386629,20.477404 -7.386629,31.044104 0,7.53051 4.45571,15.51943 4.153752,22.56813 -0.105027,2.45007 -3.571557,3.75747 -5.231206,5.1232 -3.277325,2.69707 -6.418833,6.22924 -7.578348,10.40867 -1.362849,4.91099 -0.535368,10.81265 -0.535368,15.875 v 30.33923 c 0,11.65131 -1.224835,24.05743 0.07286,35.63038 0.455463,4.06075 3.639878,7.39081 7.687903,7.99538 10.129495,1.51286 21.501281,0.11834 31.750001,0.11834 4.36491,0 9.21584,0.73753 12.65556,-2.5492 4.98367,-4.76108 2.86701,-15.51857 2.86701,-21.79247 v -44.09705 c 0,-6.86859 1.29277,-15.257 -0.72709,-21.87205 -2.12685,-6.96454 -9.10724,-8.41849 -12.27263,-13.8498 -1.48036,-2.53933 1.56997,-8.15804 2.18384,-10.84481 1.62186,-7.10101 1.95128,-14.76085 0.27079,-21.87205 -0.57446,-2.430089 -1.17921,-8.301942 -4.27571,-8.688363 -5.76252,-0.719042 -0.22425,14.049113 -0.0863,17.155023 0.37921,8.54031 -6.34369,18.81487 -3.95945,26.80043 0.93764,3.14078 7.02339,5.38401 9.29969,7.78144 4.28819,4.51637 3.92224,9.36746 3.92224,15.1598 H 96.484326 c -2.398037,0 -9.301199,-1.18687 -9.01237,2.81843 0.264028,3.66223 6.942263,2.47324 9.364803,2.47324 h 29.986281 v 47.625 c 0,4.62216 1.84056,14.37524 -0.7369,18.29862 -1.79578,2.73256 -6.33683,1.80971 -9.14105,1.80971 H 93.661759 c -2.578449,0 -6.995872,0.84626 -9.116756,-0.88935 -2.799279,-2.2908 -1.466577,-9.24246 -1.466577,-12.51655 h 29.986284 c 2.45119,0 8.8554,1.02595 8.97206,-2.82205 0.12099,-3.99115 -6.51907,-2.82205 -8.97206,-2.82205 H 83.078426 v -41.9809 c 0,-6.64776 -1.040856,-14.27185 0.132808,-20.81372 1.69147,-9.42743 14.13609,-9.27785 13.22865,-19.40295 -0.654623,-7.30425 -4.398709,-13.82224 -4.17959,-21.5191 0.279327,-9.81197 5.154511,-19.396146 7.16132,-28.927948 0.829056,-3.937406 0.262883,-15.091388 4.142896,-17.09198 2.09625,-1.080669 4.194,0.587365 4.74132,2.629297 1.52025,5.675205 1.37133,11.868614 2.81533,17.637683 0.53415,2.134046 2.12702,7.187965 5.3082,4.640544 2.44941,-1.961469 -0.25121,-7.771813 -0.75396,-10.28516 -0.98982,-4.948387 -0.44558,-11.363366 -2.71973,-15.875 -1.66751,-3.308193 -5.17428,-5.024119 -8.61601,-4.846733 z m 0.001,113.297997 c -2.55028,1.27294 -6.263329,3.37283 -8.914698,4.10466 -2.11562,0.58395 -5.605277,0.28832 -7.224882,1.92701 -3.141061,3.17828 1.390725,15.08484 2.950208,18.51463 2.000731,4.40154 8.823615,12.96255 14.505062,11.83132 5.00275,-0.99626 17.18903,-11.80602 14.00689,-17.79684 -0.99426,-1.87214 -3.30096,-1.90071 -4.56148,-0.31782 -2.29311,4.67866 -3.76877,9.30016 -9.79836,11.85251 -1.93153,0.3797 -4.06192,-1.90352 -5.28754,-3.10989 -4.357576,-4.28884 -6.387837,-10.90236 -6.706564,-16.92351 4.186018,-0.12172 7.613594,-2.13435 10.935764,-3.45612 2.18308,1.01995 3.58806,1.54305 5.63997,1.25264 1.47998,-0.20946 2.44512,-1.99142 2.10323,-3.483 -3.19728,-2.10136 -5.17157,-2.69785 -7.6476,-4.39559 z m 17.20412,1.70015 c -6.92614,6.38256 -9.11731,8.76775 -16.78244,15.65899 -2.89986,-2.06106 -4.13031,-5.84312 -7.0745,-2.89749 -2.827545,2.82828 4.70309,10.15387 7.61556,9.44852 2.61729,-1.21007 15.37971,-13.35258 18.08675,-17.35502 1.31957,-1.95105 0.45504,-4.90714 -1.84537,-4.855 z" /></g></svg>
