<?xml version="1.0" encoding="UTF-8" standalone="no"?>
<!-- Created with Inkscape (http://www.inkscape.org/) -->

<svg
   width="72.592651mm"
   height="170.14441mm"
   viewBox="0 0 72.592651 170.14441"
   version="1.1"
   id="svg1"
   xml:space="preserve"
   inkscape:version="1.3 (0e150ed6c4, 2023-07-21)"
   sodipodi:docname="tintura_madre.svg"
   xmlns:inkscape="http://www.inkscape.org/namespaces/inkscape"
   xmlns:sodipodi="http://sodipodi.sourceforge.net/DTD/sodipodi-0.dtd"
   xmlns="http://www.w3.org/2000/svg"
   xmlns:svg="http://www.w3.org/2000/svg"><sodipodi:namedview
     id="namedview1"
     pagecolor="#ffffff"
     bordercolor="#000000"
     borderopacity="0.25"
     inkscape:showpageshadow="2"
     inkscape:pageopacity="0.0"
     inkscape:pagecheckerboard="0"
     inkscape:deskcolor="#d1d1d1"
     inkscape:document-units="mm"
     inkscape:zoom="0.69166114"
     inkscape:cx="-43.373841"
     inkscape:cy="227.71266"
     inkscape:window-width="1360"
     inkscape:window-height="745"
     inkscape:window-x="-8"
     inkscape:window-y="-8"
     inkscape:window-maximized="1"
     inkscape:current-layer="layer1" /><defs
     id="defs1" /><g
     inkscape:label="Capa 1"
     inkscape:groupmode="layer"
     id="layer1"
     transform="translate(-68.65411,-63.254308)"><path
       style="fill:#030303;stroke:none"
       d="m 90.149399,64.063616 c -3.220196,1.071403 -3.67076,8.201954 -4.380326,11.058606 -2.070939,8.3374 1.689512,17.733155 4.877916,25.398648 0.635195,1.52712 2.20576,2.21056 2.802348,3.60425 0.98146,2.29279 0.751742,8.77453 0.100446,11.18192 -0.613022,2.26593 -4.473968,4.21911 -6.237851,5.60226 -4.10228,3.21678 -8.248388,6.37783 -12.347222,9.59903 -2.52384,1.98345 -5.138807,3.79234 -6.022808,7.05556 -0.6915,2.5526 0.0452,5.19731 0.31984,7.76111 0.529678,4.94453 1.176871,9.87926 1.7677,14.81667 1.956066,16.34643 3.825945,32.71167 5.952581,49.03611 0.657636,5.04814 1.277581,10.11038 1.845548,15.16944 0.274532,2.44532 0.256159,5.47519 2.20976,7.26951 2.781893,2.55509 8.100459,1.54994 11.566268,1.54994 h 23.283331 c 3.36653,0 7.72773,0.72637 10.93611,-0.39116 4.88339,-1.70097 4.28892,-8.78775 4.83953,-13.0144 1.71217,-13.14301 3.33227,-26.33276 4.744,-39.51111 1.13513,-10.59647 2.86179,-21.13864 3.84844,-31.75 0.39266,-4.22309 2.10716,-9.10724 -0.15571,-13.05278 -3.35319,-5.84662 -12.25216,-10.41533 -17.50959,-14.53792 -1.76389,-1.38315 -5.62483,-3.33635 -6.23785,-5.60226 -0.6513,-2.40736 -0.88102,-8.88915 0.10043,-11.18192 0.55389,-1.29393 2.01169,-1.85127 2.58542,-3.25557 3.25515,-7.967567 7.16137,-17.472316 5.00776,-26.100106 -0.68192,-2.731864 -1.09533,-9.29125 -3.96223,-10.580071 -4.16185,-1.870967 -11.99257,-0.35604 -16.54353,-0.35604 -3.97444,0 -9.610907,-1.027188 -13.390311,0.230283 m 26.795871,5.414161 1.41111,5.644445 H 91.545265 l 1.411111,-5.644445 h 23.988894 m 2.11666,11.288889 c -0.0117,4.242054 -1.9644,8.362647 -3.29259,12.347223 -0.40613,1.218358 -0.71175,3.440972 -1.82622,4.223536 C 111.88141,98.78513 106.02513,97.7 103.53971,97.7 c -1.91013,0 -5.972407,0.767083 -7.581186,-0.362575 -1.114467,-0.782564 -1.420101,-3.005178 -1.826223,-4.223536 -1.328198,-3.984587 -3.280889,-8.105158 -3.292591,-12.347223 h 28.22222 m -8.46666,22.577774 c 0,4.0483 -1.5203,12.01957 0.70881,15.49038 1.25688,1.95701 3.83053,3.35693 5.64119,4.76767 4.22817,3.2943 8.51166,6.52503 12.7,9.86907 1.77638,1.4183 4.87465,2.9566 5.73536,5.15583 1.24497,3.1811 -0.53584,9.39263 -1.14925,12.69483 H 75.670265 c -0.608861,-3.27763 -2.40698,-9.53597 -1.149251,-12.68611 0.899961,-2.25406 4.233688,-3.99403 6.08814,-5.42887 4.115409,-3.18419 8.242644,-6.3534 12.347222,-9.5514 1.826708,-1.42324 4.375261,-2.84283 5.641177,-4.82075 2.226827,-3.47929 0.708823,-11.43603 0.708823,-15.49065 h 11.288894 m 22.93055,53.62223 -3.88055,33.86666 H 80.256376 l -3.880555,-33.86666 h 57.149999 m -4.58611,39.51111 -3.88056,31.04444 H 84.842488 l -3.880556,-31.04444 z"
       id="path1" /></g></svg>
