<?xml version="1.0" encoding="UTF-8" standalone="no"?>
<!-- Created with Inkscape (http://www.inkscape.org/) -->

<svg
   width="135.47844mm"
   height="135.46666mm"
   viewBox="0 0 135.47844 135.46666"
   version="1.1"
   id="svg1"
   xml:space="preserve"
   inkscape:version="1.3 (0e150ed6c4, 2023-07-21)"
   sodipodi:docname="potencia_puntos.svg"
   xmlns:inkscape="http://www.inkscape.org/namespaces/inkscape"
   xmlns:sodipodi="http://sodipodi.sourceforge.net/DTD/sodipodi-0.dtd"
   xmlns="http://www.w3.org/2000/svg"
   xmlns:svg="http://www.w3.org/2000/svg"><sodipodi:namedview
     id="namedview1"
     pagecolor="#ffffff"
     bordercolor="#000000"
     borderopacity="0.25"
     inkscape:showpageshadow="2"
     inkscape:pageopacity="0.0"
     inkscape:pagecheckerboard="0"
     inkscape:deskcolor="#d1d1d1"
     inkscape:document-units="mm"
     inkscape:zoom="0.44349206"
     inkscape:cx="257.05082"
     inkscape:cy="201.80744"
     inkscape:window-width="1360"
     inkscape:window-height="745"
     inkscape:window-x="-8"
     inkscape:window-y="-8"
     inkscape:window-maximized="1"
     inkscape:current-layer="layer1" /><defs
     id="defs1" /><g
     inkscape:label="Capa 1"
     inkscape:groupmode="layer"
     id="layer1"
     transform="translate(-37.263846,-94.630621)"><path
       id="path2"
       style="display:inline;fill:#501616;stroke-width:5.64444"
       d="m 105.00289,94.6304 c -37.349251,0 -67.73333,28.69084 -67.73333,63.95165 a 20.557067,20.557067 0 0 0 15.736507,20.46697 l 2.511991,0.56431 2.071192,-1.52963 a 89.554756,89.554756 0 0 1 47.41364,-15.71997 89.554756,89.554756 0 0 1 47.43018,15.71997 l 2.0774,1.53531 2.50579,-0.55294 a 20.557067,20.557067 0 0 0 15.71997,-20.48402 c 0,-35.26081 -30.38409,-63.95165 -67.73334,-63.95165 z" /><path
       id="path3"
       style="display:inline;fill:#501616;stroke-width:6.24208"
       d="m 105.00289,167.68706 a 73.962465,73.962465 0 0 0 -25.673733,4.99359 178.45497,178.45497 0 0 0 -5.536498,26.21665 31.210425,31.210425 0 0 0 62.420461,0 198.1862,198.1862 0 0 0 -5.76108,-26.27266 73.750234,73.750234 0 0 0 -25.44915,-4.93758 z" /></g></svg>
