<?xml version="1.0" encoding="UTF-8" standalone="no"?>
<!-- Created with Inkscape (http://www.inkscape.org/) -->

<svg
   width="126.5042mm"
   height="149.09024mm"
   viewBox="0 0 126.5042 149.09024"
   version="1.1"
   id="svg1"
   xml:space="preserve"
   inkscape:version="1.3 (0e150ed6c4, 2023-07-21)"
   sodipodi:docname="potencia_capsulas.svg"
   xmlns:inkscape="http://www.inkscape.org/namespaces/inkscape"
   xmlns:sodipodi="http://sodipodi.sourceforge.net/DTD/sodipodi-0.dtd"
   xmlns="http://www.w3.org/2000/svg"
   xmlns:svg="http://www.w3.org/2000/svg"><sodipodi:namedview
     id="namedview1"
     pagecolor="#ffffff"
     bordercolor="#000000"
     borderopacity="0.25"
     inkscape:showpageshadow="2"
     inkscape:pageopacity="0.0"
     inkscape:pagecheckerboard="0"
     inkscape:deskcolor="#d1d1d1"
     inkscape:document-units="mm"
     inkscape:zoom="0.48907828"
     inkscape:cx="-34.759262"
     inkscape:cy="289.31974"
     inkscape:window-width="1360"
     inkscape:window-height="745"
     inkscape:window-x="-8"
     inkscape:window-y="-8"
     inkscape:window-maximized="1"
     inkscape:current-layer="layer1"
     showgrid="false" /><defs
     id="defs1" /><g
     inkscape:label="Capa 1"
     inkscape:groupmode="layer"
     id="layer1"
     transform="translate(-44.172934,-88.455912)"><path
       id="path1"
       style="display:inline;fill:#001928;stroke:none;fill-opacity:0.82352942"
       d="m 122.65676,186.18716 c -4.73052,-0.0878 -9.52813,0.27854 -13.95987,0.27854 H 80.121889 c -5.844354,0 -11.945592,-0.52681 -17.638717,1.04955 -10.019399,2.77423 -17.026467,11.69402 -18.165816,21.88083 -1.197149,10.70365 5.157956,21.41182 14.990816,25.70179 8.246202,3.59774 18.384436,2.16783 27.163717,2.16783 h 28.927951 c 5.85188,0 11.94238,0.53848 17.63872,-1.04903 9.85871,-2.74753 16.90404,-11.48141 18.15444,-21.52892 1.3465,-10.8198 -5.02444,-21.71149 -14.97944,-26.05474 -4.16283,-1.8162 -8.82628,-2.35804 -13.5568,-2.44585 z m -24.896154,8.7452 h 23.283854 c 5.27472,0 10.34424,-0.0476 14.81511,3.21273 9.05678,6.60482 9.33371,20.76209 -0.002,27.27947 -6.10203,4.25987 -13.40717,3.37447 -20.45767,3.37447 H 82.943939 c -5.460244,0 -11.576589,0.75727 -16.933333,-0.40566 -6.839223,-1.48478 -15.291222,-9.42651 -13.089124,-17.22479 0.772129,-2.73436 3.836434,-4.29393 6.253882,-2.43757 3.078747,2.36418 2.069432,12.00542 5.478219,14.57585 2.559167,1.92976 5.725629,1.78799 8.765356,1.788 h 14.816667 c 2.505417,10e-6 5.817332,0.49937 7.628475,-1.34048 2.815284,-2.85991 1.894525,-9.36929 1.896525,-11.88868 z" /><path
       id="path2"
       style="display:inline;fill:#001928;stroke:none;fill-opacity:0.82352942"
       d="m 107.06288,88.492363 c -12.382931,-0.66081 -24.402972,7.71503 -26.504842,20.891287 -1.050599,6.58593 0.303367,13.57832 4.163053,19.05006 2.957777,4.19314 7.130745,7.67284 10.746631,11.28872 l 21.519618,21.51961 c 5.6562,5.6562 11.13513,12.75992 18.69705,15.88637 14.82544,6.12956 32.44004,-3.23721 34.71881,-19.41432 1.90917,-13.55328 -6.47721,-21.50007 -15.31586,-30.33871 l -21.16667,-21.16675 c -5.53597,-5.536 -10.96384,-12.663557 -18.34462,-15.763414 -2.77881,-1.167072 -5.65557,-1.800358 -8.51317,-1.952853 z m -1.36064,8.377783 c 2.39521,-0.0015 4.80556,0.497962 7.05176,1.562696 5.70785,2.705588 10.07579,8.326578 14.46372,12.714528 2.23273,2.23274 4.48562,4.44732 6.6952,6.70299 0.94072,0.96033 2.33773,2.12178 2.56883,3.52797 0.31908,1.94154 -2.07574,3.73897 -3.26853,4.93871 -2.81176,2.82818 -5.66773,5.61411 -8.45478,8.46667 -2.3136,2.36797 -8.44186,8.38196 -6.12159,11.46545 3.87607,5.15107 9.30612,9.56532 13.87254,14.10922 2.19152,2.18072 4.50457,4.79813 7.76128,5.15989 3.84819,0.42747 10.22792,-6.60873 13.75627,-6.87917 2.61176,-0.20018 4.81717,2.10025 4.2571,4.71961 -0.5142,2.4048 -2.90125,4.2071 -4.96094,5.2772 -5.34233,2.77557 -12.29014,2.50389 -17.28576,-0.8971 -5.5288,-3.76399 -10.06441,-9.55285 -14.80685,-14.23996 -8.57328,-8.47325 -17.37319,-16.72665 -25.735379,-25.41809 -5.048325,-5.2471 -8.254404,-12.03748 -6.131926,-19.4025 2.100643,-7.28927 9.15342,-11.803498 16.339055,-11.808114 z" /></g></svg>
