<?xml version="1.0" encoding="UTF-8" standalone="no"?>
<!-- Created with Inkscape (http://www.inkscape.org/) -->

<svg
   width="181.29745mm"
   height="142.45119mm"
   viewBox="0 0 181.29745 142.45119"
   version="1.1"
   id="svg1"
   xml:space="preserve"
   inkscape:version="1.3 (0e150ed6c4, 2023-07-21)"
   sodipodi:docname="potencia_polvo.svg"
   xmlns:inkscape="http://www.inkscape.org/namespaces/inkscape"
   xmlns:sodipodi="http://sodipodi.sourceforge.net/DTD/sodipodi-0.dtd"
   xmlns="http://www.w3.org/2000/svg"
   xmlns:svg="http://www.w3.org/2000/svg"><sodipodi:namedview
     id="namedview1"
     pagecolor="#ffffff"
     bordercolor="#000000"
     borderopacity="0.25"
     inkscape:showpageshadow="2"
     inkscape:pageopacity="0.0"
     inkscape:pagecheckerboard="0"
     inkscape:deskcolor="#d1d1d1"
     inkscape:document-units="mm"
     showgrid="false"
     inkscape:zoom="0.48907828"
     inkscape:cx="342.48096"
     inkscape:cy="270.91778"
     inkscape:window-width="1360"
     inkscape:window-height="745"
     inkscape:window-x="-8"
     inkscape:window-y="-8"
     inkscape:window-maximized="1"
     inkscape:current-layer="layer1" /><defs
     id="defs1" /><g
     inkscape:label="Capa 1"
     inkscape:groupmode="layer"
     id="layer1"
     style="display:inline"
     transform="translate(-14.037512,-77.054265)"><path
       style="display:inline;fill:#030303;stroke:none"
       d="M 174.09527,183.77778 H 35.806376 c 0.860293,-3.48103 1.398675,-6.91193 2.853589,-10.23056 2.159943,-4.92679 5.884562,-9.32777 8.897034,-13.75833 5.666375,-8.33375 11.348996,-16.66433 16.941877,-25.04722 2.677646,-4.0134 5.483144,-7.94571 8.106245,-11.99445 1.044348,-1.61194 2.376141,-3.59347 1.506782,-5.57604 -1.09807,-2.50414 -3.993775,-2.2814 -5.725221,-0.647 -3.629796,3.42637 -6.249366,8.80219 -9.053148,12.92582 -6.540818,9.61984 -13.072954,19.25098 -19.529103,28.92778 -5.291821,7.93164 -10.585146,15.46286 -10.700833,25.4 -3.442198,0 -9.22084,-1.10241 -12.302216,0.58039 -5.168825,2.8228 -0.108046,12.04177 2.538091,14.91166 2.61367,2.83467 6.953629,3.3462 9.344964,5.97656 3.037517,3.3411 3.357683,7.63264 7.475686,10.49803 7.991268,5.56048 20.398599,3.31114 29.632364,3.31114 h 69.144443 20.81389 c 4.1859,0 8.63461,0.42931 12.7,-0.75983 4.19072,-1.2258 7.83056,-3.96087 10.0908,-7.70688 0.99438,-1.64801 1.38015,-3.91756 2.67558,-5.34246 2.39134,-2.63036 6.73129,-3.14187 9.34497,-5.97656 2.64612,-2.86989 7.70692,-12.08886 2.53809,-14.91166 -3.08138,-1.68281 -8.86002,-0.58039 -12.30222,-0.58039 -0.24484,-12.05363 -7.85629,-21.14044 -14.22861,-30.69167 -10.16665,-15.23841 -20.63678,-30.27414 -30.8091,-45.50833 -5.39572,-8.080689 -10.5617,-18.59624 -18.11048,-24.833424 -9.3505,-7.725864 -21.977059,-5.219934 -29.246969,4.019909 -1.667233,2.119003 -5.136444,5.888842 -4.675366,8.806655 0.434496,2.749595 3.596028,3.461503 5.576587,1.857628 2.661513,-2.155327 4.076931,-5.721227 6.523196,-8.141407 5.473922,-5.41555 12.786952,-5.355573 18.265822,-0.0044 2.91435,2.846435 4.92958,6.508712 7.24393,9.828352 5.03295,7.219097 9.8186,14.610527 14.78973,21.872217 7.46026,10.89772 14.84255,21.84999 22.21377,32.80834 4.30539,6.40055 9.61761,12.72693 12.84914,19.75555 1.52077,3.30767 2.04233,6.73758 2.90558,10.23056 M 77.83188,103.77803 c -3.798175,1.5677 -1.513334,7.58066 2.379882,6.06523 3.865904,-1.50479 1.498994,-7.66624 -2.379882,-6.06523 m 16.207419,23.29528 c -3.956816,1.49184 -1.802673,7.62365 2.067488,6.16449 3.956813,-1.49184 1.802684,-7.62366 -2.067488,-6.16449 m 10.230551,23.63612 c -3.9568,1.49184 -1.80266,7.62367 2.06749,6.16448 3.95679,-1.49184 1.80268,-7.62368 -2.06749,-6.16448 m 35.63056,12.34722 c -3.96294,1.49415 -1.88727,7.6912 2.06834,6.1667 3.94039,-1.51864 1.80596,-7.62744 -2.06834,-6.1667 m -68.791667,0.70555 c -3.956805,1.49185 -1.802667,7.62368 2.067488,6.16449 3.956795,-1.49185 1.802679,-7.62368 -2.067488,-6.16449 m 116.392077,27.07113 c -0.4768,1.28061 -1.04384,2.43638 -1.95601,3.4738 -6.16116,7.00722 -15.4441,0.91564 -22.72562,4.00257 -2.88727,1.22403 -3.16076,4.56275 -0.34072,6.05435 2.8423,1.5034 7.76624,0.58039 10.91124,0.58039 C 169.46968,215.47314 153.00195,212 144.10915,212 H 63.323043 c -8.544946,0 -23.044378,3.0613 -26.811111,-7.05556 h 39.511111 26.458337 l 29.28055,-1.5e-4 c 2.4459,-0.002 8.59943,-0.89678 6.25724,-4.89378 -1.32803,-2.26631 -3.97221,-2.15917 -6.25724,-2.16147 l -16.22778,-1.5e-4 H 47.448043 c -8.280494,0 -21.403665,2.73046 -25.047222,-7.05556 H 187.50082 m -39.13374,7.5011 c -3.9568,1.49183 -1.80268,7.62365 2.06749,6.16448 3.95681,-1.49184 1.80267,-7.62365 -2.06749,-6.16448 z"
       id="path1" /><path
       style="display:inline;fill:#030303;stroke:none"
       d="M 173.5661,183.77778 H 35.277209 c 0.860293,-3.48103 1.398675,-6.91193 2.853589,-10.23056 2.159943,-4.92679 5.884562,-9.32777 8.897034,-13.75833 5.666375,-8.33375 11.348996,-16.66433 16.941877,-25.04722 2.677646,-4.0134 5.483144,-7.94571 8.106245,-11.99445 1.044348,-1.61194 2.376141,-3.59347 1.506782,-5.57604 -1.09807,-2.50414 -3.993775,-2.2814 -5.725221,-0.647 -3.629796,3.42637 -6.249366,8.80219 -9.053148,12.92582 -6.540818,9.61984 -13.072954,19.25098 -19.529103,28.92778 -5.291821,7.93164 -10.585146,15.46286 -10.700833,25.4 -3.442198,0 -9.22084,-1.10241 -12.302216,0.58039 -5.168825,2.8228 -0.108046,12.04177 2.538091,14.91166 2.61367,2.83467 6.953629,3.3462 9.344964,5.97656 3.037517,3.3411 3.357683,7.63264 7.475686,10.49803 7.991268,5.56048 20.398599,3.31114 29.632364,3.31114 h 69.14444 20.81389 c 4.1859,0 8.63461,0.42931 12.7,-0.75983 4.19072,-1.2258 7.83056,-3.96087 10.0908,-7.70688 0.99438,-1.64801 1.38015,-3.91756 2.67558,-5.34246 2.39134,-2.63036 6.73129,-3.14187 9.34497,-5.97656 2.64612,-2.86989 7.70692,-12.08886 2.53809,-14.91166 -3.08138,-1.68281 -8.86002,-0.58039 -12.30222,-0.58039 -0.24484,-12.05363 -7.85629,-21.14044 -14.22861,-30.69167 -10.16665,-15.23841 -20.63678,-30.27414 -30.8091,-45.50833 -5.39572,-8.080689 -10.5617,-18.59624 -18.11048,-24.833424 -9.3505,-7.725864 -21.977056,-5.219934 -29.246966,4.019909 -1.667233,2.119003 -5.136444,5.888842 -4.675366,8.806655 0.434496,2.749595 3.596028,3.461503 5.576587,1.857628 2.661513,-2.155327 4.076931,-5.721227 6.523196,-8.141407 5.473919,-5.41555 12.786949,-5.355573 18.265819,-0.0044 2.91435,2.846435 4.92958,6.508712 7.24393,9.828352 5.03295,7.219097 9.8186,14.610527 14.78973,21.872217 7.46026,10.89772 14.84255,21.84999 22.21377,32.80834 4.30539,6.40055 9.61761,12.72693 12.84914,19.75555 1.52077,3.30767 2.04233,6.73758 2.90558,10.23056 M 77.302713,103.77803 c -3.798175,1.5677 -1.513334,7.58066 2.379882,6.06523 3.865904,-1.50479 1.498994,-7.66624 -2.379882,-6.06523 m 16.207419,23.29528 c -3.956816,1.49184 -1.802673,7.62365 2.067488,6.16449 3.956813,-1.49184 1.802684,-7.62366 -2.067488,-6.16449 m 10.230548,23.63612 c -3.956797,1.49184 -1.80266,7.62367 2.06749,6.16448 3.95679,-1.49184 1.80268,-7.62368 -2.06749,-6.16448 m 35.63056,12.34722 c -3.96294,1.49415 -1.88727,7.6912 2.06834,6.1667 3.94039,-1.51864 1.80596,-7.62744 -2.06834,-6.1667 m -68.791664,0.70555 c -3.956805,1.49185 -1.802667,7.62368 2.067488,6.16449 3.956795,-1.49185 1.802679,-7.62368 -2.067488,-6.16449 m 116.392074,27.07113 c -0.4768,1.28061 -1.04384,2.43638 -1.95601,3.4738 -6.16116,7.00722 -15.4441,0.91564 -22.72562,4.00257 -2.88727,1.22403 -3.16076,4.56275 -0.34072,6.05435 2.8423,1.5034 7.76624,0.58039 10.91124,0.58039 C 168.94051,215.47314 152.47278,212 143.57998,212 H 62.793876 c -8.544946,0 -23.044378,3.0613 -26.811111,-7.05556 h 39.511111 26.458334 l 29.28055,-1.5e-4 c 2.4459,-0.002 8.59943,-0.89678 6.25724,-4.89378 -1.32803,-2.26631 -3.97221,-2.15917 -6.25724,-2.16147 l -16.22778,-1.5e-4 H 46.918876 c -8.280494,0 -21.403665,2.73046 -25.047222,-7.05556 H 186.97165 m -39.13374,7.5011 c -3.9568,1.49183 -1.80268,7.62365 2.06749,6.16448 3.95681,-1.49184 1.80267,-7.62365 -2.06749,-6.16448 z"
       id="path2" /><path
       style="display:inline;fill:#030303;stroke:none"
       d="M 173.61335,182.67219 H 35.324475 c 0.860293,-3.48103 1.398675,-6.91193 2.853589,-10.23056 2.159943,-4.92679 5.884562,-9.32777 8.897034,-13.75833 5.666375,-8.33375 11.348996,-16.66433 16.941877,-25.04722 2.677646,-4.0134 5.483144,-7.94571 8.106245,-11.99445 1.044348,-1.61194 2.376141,-3.59347 1.506782,-5.57604 -1.09807,-2.50414 -3.993775,-2.2814 -5.725221,-0.647 -3.629796,3.42637 -6.249366,8.80219 -9.053148,12.92582 -6.540818,9.61984 -13.072954,19.25098 -19.529103,28.92778 -5.291821,7.93164 -10.585146,15.46286 -10.700833,25.4 -3.442198,0 -9.22084,-1.10241 -12.302216,0.58039 -5.168825,2.8228 -0.108046,12.04177 2.538091,14.91166 2.61367,2.83467 6.953629,3.3462 9.344964,5.97656 3.037517,3.3411 3.357683,7.63264 7.475686,10.49803 7.991268,5.56048 20.398599,3.31114 29.632364,3.31114 h 69.144424 20.81389 c 4.1859,0 8.63461,0.42931 12.7,-0.75983 4.19072,-1.2258 7.83056,-3.96087 10.0908,-7.70688 0.99438,-1.64801 1.38015,-3.91756 2.67558,-5.34246 2.39134,-2.63036 6.73129,-3.14187 9.34497,-5.97656 2.64612,-2.86989 7.70692,-12.08886 2.53809,-14.91166 -3.08138,-1.68281 -8.86002,-0.58039 -12.30222,-0.58039 -0.24484,-12.05363 -7.85629,-21.14044 -14.22861,-30.69167 -10.16665,-15.23841 -20.63678,-30.27414 -30.8091,-45.50833 -5.39572,-8.080699 -10.5617,-18.59625 -18.11048,-24.833434 -9.3505,-7.725864 -21.97704,-5.219934 -29.24695,4.019909 -1.667233,2.119003 -5.136444,5.888842 -4.675366,8.806655 0.434496,2.749595 3.596028,3.461503 5.576587,1.857628 2.661513,-2.155327 4.076931,-5.721227 6.523196,-8.141407 5.473903,-5.41555 12.786933,-5.355573 18.265803,-0.0044 2.91435,2.846435 4.92958,6.508712 7.24393,9.828352 5.03295,7.219107 9.8186,14.610537 14.78973,21.872227 7.46026,10.89772 14.84255,21.84999 22.21377,32.80834 4.30539,6.40055 9.61761,12.72693 12.84914,19.75555 1.52077,3.30767 2.04233,6.73758 2.90558,10.23056 M 77.349979,102.67244 c -3.798175,1.5677 -1.513334,7.58066 2.379882,6.06523 3.865904,-1.50479 1.498994,-7.66624 -2.379882,-6.06523 m 16.207419,23.29528 c -3.956816,1.49184 -1.802673,7.62365 2.067488,6.16449 3.956807,-1.49184 1.802684,-7.62366 -2.067488,-6.16449 m 10.230532,23.63612 c -3.956787,1.49184 -1.80266,7.62367 2.06749,6.16448 3.95679,-1.49184 1.80268,-7.62368 -2.06749,-6.16448 m 35.63056,12.34722 c -3.96294,1.49415 -1.88727,7.6912 2.06834,6.1667 3.94039,-1.51864 1.80596,-7.62744 -2.06834,-6.1667 m -68.791648,0.70555 c -3.956805,1.49185 -1.802667,7.62368 2.067488,6.16449 3.956795,-1.49185 1.802679,-7.62368 -2.067488,-6.16449 M 187.0189,189.72774 c -0.4768,1.28061 -1.04384,2.43638 -1.95601,3.4738 -6.16116,7.00722 -15.4441,0.91564 -22.72562,4.00257 -2.88727,1.22403 -3.16076,4.56275 -0.34072,6.05435 2.8423,1.5034 7.76624,0.58039 10.91124,0.58039 -3.92003,10.5287 -20.38776,7.05556 -29.28056,7.05556 H 62.841142 c -8.544946,0 -23.044378,3.0613 -26.811111,-7.05556 h 39.511111 26.458318 l 29.28055,-1.5e-4 c 2.4459,-0.002 8.59943,-0.89678 6.25724,-4.89378 -1.32803,-2.26631 -3.97221,-2.15917 -6.25724,-2.16147 l -16.22778,-1.5e-4 H 46.966142 c -8.280494,0 -21.403665,2.73046 -25.047222,-7.05556 H 187.0189 m -39.13374,7.5011 c -3.9568,1.49183 -1.80268,7.62365 2.06749,6.16448 3.95681,-1.49184 1.80267,-7.62365 -2.06749,-6.16448 z"
       id="path3" /></g></svg>
