<?xml version="1.0" encoding="UTF-8" standalone="no"?>
<svg
   viewBox="0 0 24 24"
   width="512"
   height="512"
   version="1.1"
   id="svg2"
   sodipodi:docname="trash.svg"
   inkscape:version="1.3 (0e150ed6c4, 2023-07-21)"
   xmlns:inkscape="http://www.inkscape.org/namespaces/inkscape"
   xmlns:sodipodi="http://sodipodi.sourceforge.net/DTD/sodipodi-0.dtd"
   xmlns="http://www.w3.org/2000/svg"
   xmlns:svg="http://www.w3.org/2000/svg">
  <defs
     id="defs2" />
  <sodipodi:namedview
     id="namedview2"
     pagecolor="#ffffff"
     bordercolor="#000000"
     borderopacity="0.25"
     inkscape:showpageshadow="2"
     inkscape:pageopacity="0.0"
     inkscape:pagecheckerboard="0"
     inkscape:deskcolor="#d1d1d1"
     inkscape:zoom="0.6875"
     inkscape:cx="255.27273"
     inkscape:cy="255.27273"
     inkscape:window-width="1360"
     inkscape:window-height="745"
     inkscape:window-x="-8"
     inkscape:window-y="-8"
     inkscape:window-maximized="1"
     inkscape:current-layer="svg2" />
  <g
     id="_01_align_center"
     data-name="01 align center"
     style="fill:#001928;fill-opacity:0.82352942">
    <path
       d="M22,4H17V2a2,2,0,0,0-2-2H9A2,2,0,0,0,7,2V4H2V6H4V21a3,3,0,0,0,3,3H17a3,3,0,0,0,3-3V6h2ZM9,2h6V4H9Zm9,19a1,1,0,0,1-1,1H7a1,1,0,0,1-1-1V6H18Z"
       id="path1"
       style="fill:#001928;fill-opacity:0.82352942" />
    <rect
       x="9"
       y="10"
       width="2"
       height="8"
       id="rect1"
       style="fill:#001928;fill-opacity:0.82352942" />
    <rect
       x="13"
       y="10"
       width="2"
       height="8"
       id="rect2"
       style="fill:#001928;fill-opacity:0.82352942" />
  </g>
</svg>
